<?xml version="1.0" encoding="UTF-8"?>
<!DOCTYPE svg PUBLIC "-//W3C//DTD SVG 1.1//EN" "http://www.w3.org/Graphics/SVG/1.1/DTD/svg11.dtd">
<!-- Creator: CorelDRAW X6 -->
<svg xmlns="http://www.w3.org/2000/svg" xml:space="preserve" width="900.52mm" height="600.498mm" version="1.1" style="shape-rendering:geometricPrecision; text-rendering:geometricPrecision; image-rendering:optimizeQuality; fill-rule:evenodd; clip-rule:evenodd"
viewBox="0 0 12269 8182"
 xmlns:xlink="http://www.w3.org/1999/xlink">
 <defs>
  <style type="text/css">
   <![CDATA[
    .fil6 {fill:none}
    .fil2 {fill:#7688A1}
    .fil0 {fill:#0000CE}
    .fil3 {fill:#72839B}
    .fil5 {fill:#DFE3E8}
    .fil4 {fill:#FAE013}
    .fil1 {fill:#FFED00;fill-rule:nonzero}
   ]]>
  </style>
 </defs>
 <g id="Vrstva_x0020_1">
  <metadata id="CorelCorpID_0Corel-Layer"/>
  <rect class="fil0" x="7" width="12262" height="8175"/>
  <path class="fil1" d="M5876 4893c-9,0 -14,4 -14,12 4,53 22,77 60,83l0 257c0,50 -25,60 -53,60 -41,0 -68,-18 -84,-28 -5,-4 -12,-1 -14,6 -2,12 -2,19 -2,25 0,60 43,97 119,97 91,0 146,-53 146,-152l0 -304c0,-34 -25,-59 -59,-59 -35,0 -65,4 -100,4z"/>
  <path id="1" class="fil1" d="M6121 4893c-9,0 -14,4 -14,12 4,53 22,77 60,83l0 399c0,6 5,11 11,11l92 0c6,0 11,-5 11,-11l0 -438c0,-34 -25,-59 -59,-59 -35,0 -65,4 -100,4z"/>
  <path id="2" class="fil1" d="M6835 5375c-4,-12 -12,-43 -12,-98l0 -373c0,-6 -5,-11 -11,-11l-88 0c-6,0 -11,5 -11,11l0 314 -167 -299c-10,-18 -29,-29 -50,-29 -50,0 -81,4 -130,4 -9,0 -14,4 -14,12 4,53 22,77 60,83l0 399c0,6 5,11 11,11l88 0c6,0 11,-5 11,-11l0 -315 152 272c22,40 54,65 99,65 19,0 43,-7 56,-16 6,-4 10,-7 6,-18z"/>
  <path id="3" class="fil1" d="M6954 4989l0 399c0,6 5,11 11,11l138 4c170,0 275,-100 275,-262 0,-161 -84,-249 -255,-249 -74,0 -141,4 -215,4 -9,0 -14,4 -14,12 4,53 22,77 60,83zm156 317c-17,0 -26,-1 -36,-2 -5,-1 -7,-4 -7,-7l0 -310c18,-1 25,-1 49,-1 99,0 145,53 145,161 0,102 -55,159 -151,159z"/>
  <path id="4" class="fil1" d="M7589 4861l58 0c19,0 24,-7 37,-25l58 -79c6,-9 4,-19 -7,-19l-72 0c-9,0 -14,5 -17,9l-28 43 -28 -43c-2,-4 -7,-9 -17,-9l-72 0c-11,0 -14,10 -7,19l58 79c13,17 18,25 37,25zm-109 128l0 399c0,6 5,11 11,11l92 0c6,0 11,-5 11,-11l0 -167c0,-4 3,-7 7,-7l14 0c5,0 9,1 14,8l82 123c30,44 59,66 113,66 27,0 48,-12 58,-20 4,-4 6,-9 0,-14 -35,-32 -87,-111 -152,-195 60,-29 98,-76 98,-141 0,-95 -76,-149 -205,-149 -65,0 -124,4 -189,4 -9,0 -14,4 -14,12 4,53 22,77 60,83zm151 -4c55,0 80,23 80,66 0,42 -32,67 -83,67l-28 0c-4,0 -7,-3 -7,-7l0 -124c17,-1 30,-1 38,-1z"/>
  <path id="5" class="fil1" d="M7913 4893c-9,0 -14,4 -14,12 4,53 22,77 60,83l0 399c0,6 5,11 11,11l92 0c6,0 11,-5 11,-11l0 -438c0,-34 -25,-59 -59,-59 -35,0 -65,4 -100,4z"/>
  <path id="6" class="fil1" d="M8423 5306c-92,0 -138,-55 -138,-162 0,-100 50,-158 133,-158 30,0 53,4 91,16 6,2 12,1 14,-8l12 -81c1,-6 -2,-11 -9,-12 -32,-9 -70,-14 -104,-14 -159,0 -254,102 -254,274 0,154 85,245 235,245 113,0 146,-51 146,-96 0,-9 -1,-18 -3,-27 -2,-7 -7,-11 -17,-6 -35,19 -69,29 -106,29z"/>
  <path id="7" class="fil1" d="M8614 4893c-9,0 -14,4 -14,12 4,53 22,77 60,83l0 399c0,6 5,11 11,11l92 0c6,0 11,-5 11,-11l0 -195c0,-4 3,-7 7,-7l177 0c4,0 7,3 7,7l0 195c0,6 5,11 11,11l92 0c6,0 11,-5 11,-11l0 -483c0,-6 -5,-11 -11,-11l-92 0c-6,0 -11,5 -11,11l0 178c0,4 -3,7 -7,7l-177 0c-4,0 -7,-3 -7,-7l0 -133c0,-34 -25,-59 -59,-59 -35,0 -66,4 -100,4z"/>
  <path id="8" class="fil1" d="M9419 4875c60,0 104,-29 104,-82 0,-47 -41,-82 -104,-82 -60,0 -104,35 -104,82 0,53 41,82 104,82zm0 -58c-15,0 -27,-11 -27,-25 0,-14 12,-25 27,-25 15,0 27,11 27,25 0,14 -12,25 -27,25zm-208 172l0 237c0,120 71,179 209,179 132,0 209,-64 209,-179l0 -322c0,-6 -5,-11 -11,-11l-92 0c-6,0 -11,5 -11,11l0 298c0,68 -35,103 -96,103 -61,0 -96,-35 -96,-103l0 -252c0,-40 -25,-60 -60,-60 -29,0 -61,3 -99,4 -9,0 -14,4 -14,12 4,53 22,77 60,83z"/>
  <path id="9" class="fil1" d="M10177 4909c5,-8 2,-12 -4,-16 -5,-3 -22,-11 -48,-11 -54,0 -77,25 -97,85l-93 285 -106 -322c-7,-23 -27,-37 -51,-37l-63 0c-9,0 -14,8 -12,17l165 470c4,11 14,18 25,18l87 0c7,0 13,-4 15,-11l148 -411c9,-23 16,-41 33,-67z"/>
  <path id="10" class="fil1" d="M6497 5759c-9,0 -14,4 -14,12 4,53 22,77 60,83l0 399c0,6 5,11 11,11l92 0c6,0 11,-5 11,-11l0 -195c0,-4 3,-7 7,-7l177 0c4,0 7,3 7,7l0 195c0,6 5,11 11,11l92 0c6,0 11,-5 11,-11l0 -483c0,-6 -5,-11 -11,-11l-92 0c-6,0 -11,5 -11,11l0 178c0,4 -3,7 -7,7l-177 0c-4,0 -7,-3 -7,-7l0 -133c0,-34 -25,-59 -59,-59 -35,0 -66,4 -100,4z"/>
  <path id="11" class="fil1" d="M7093 5854l0 399c0,6 5,11 11,11l92 0c6,0 11,-5 11,-11l0 -167c0,-4 3,-7 7,-7l14 0c5,0 9,1 14,8l82 123c30,44 59,66 113,66 27,0 48,-12 58,-20 4,-4 6,-9 0,-14 -35,-32 -87,-111 -152,-195 60,-29 98,-76 98,-141 0,-95 -76,-149 -205,-149 -65,0 -124,4 -189,4 -9,0 -14,4 -14,12 4,53 22,77 60,83zm151 -4c55,0 80,23 80,66 0,42 -32,67 -83,67l-28 0c-4,0 -7,-3 -7,-7l0 -124c17,-1 30,-1 38,-1z"/>
  <path id="12" class="fil1" d="M7636 5759c-9,0 -14,4 -14,12 4,53 22,77 60,83l-139 393c-3,9 3,17 12,17l96 0c9,0 12,-4 14,-10l30 -87c2,-6 5,-9 12,-9l190 0c7,0 11,2 13,9l16 48c14,43 44,61 94,61 30,0 48,-8 57,-15 3,-2 3,-6 1,-9 -7,-10 -18,-27 -32,-64l-130 -364c-15,-42 -32,-66 -105,-66 -60,0 -114,4 -174,4zm235 298l-136 0c-6,0 -8,-3 -6,-8l63 -198 9 0c9,0 14,5 18,17l57 181c1,6 0,9 -6,9z"/>
  <path id="13" class="fil1" d="M8154 5854l0 399c0,6 5,11 11,11l138 4c170,0 275,-100 275,-262 0,-161 -84,-249 -255,-249 -74,0 -141,4 -215,4 -9,0 -14,4 -14,12 4,53 22,77 60,83zm156 317c-17,0 -26,-1 -36,-2 -5,-1 -7,-4 -7,-7l0 -310c18,-1 25,-1 49,-1 99,0 145,53 145,161 0,102 -55,159 -151,159z"/>
  <path id="14" class="fil1" d="M8680 5854l0 399c0,6 5,11 11,11l217 0c45,0 77,-27 76,-96 0,-7 -5,-9 -10,-7 -27,8 -51,8 -77,8l-96 0c-4,0 -7,-3 -7,-7l0 -95c0,-4 3,-7 7,-7l133 0c6,0 11,-5 11,-11l0 -74c0,-6 -5,-11 -11,-11l-133 0c-4,0 -7,-3 -7,-7l0 -102 155 0c6,0 11,-5 11,-11l0 -74c0,-6 -5,-11 -11,-11l-314 0c-9,0 -14,4 -14,12 4,53 22,77 60,83z"/>
  <path id="15" class="fil1" d="M9296 6171c-92,0 -138,-55 -138,-162 0,-100 50,-158 133,-158 30,0 53,4 91,16 6,2 12,1 14,-8l12 -81c1,-6 -2,-11 -9,-12 -32,-9 -70,-14 -104,-14 -159,0 -254,102 -254,274 0,154 85,245 235,245 113,0 146,-51 146,-96 0,-9 -1,-18 -3,-27 -2,-7 -7,-11 -17,-6 -35,19 -69,29 -106,29z"/>
 </g>
 <g id="__x0023_Layer_x0020_2">
  <metadata id="CorelCorpID_1Corel-Layer"/>
  <path class="fil1" d="M5533 2385c-37,106 23,201 177,201 278,0 410,-216 410,-499 0,-233 -112,-366 -309,-366 -187,0 -309,120 -309,305 0,149 107,250 267,250 62,0 117,-18 157,-52 -30,139 -108,196 -216,196 -52,0 -102,-11 -154,-42 -8,-5 -19,-2 -23,7zm278 -276c-70,0 -114,-43 -114,-111 0,-72 44,-112 114,-112 70,0 114,40 114,112 0,67 -44,111 -114,111z"/>
  <path id="1" class="fil1" d="M6339 2586c62,0 112,-50 112,-112 0,-60 -50,-112 -112,-112 -60,0 -112,52 -112,112 0,61 50,112 112,112z"/>
  <path id="2" class="fil1" d="M7282 2586c254,0 401,-161 399,-433 -1,-278 -144,-433 -399,-433 -252,0 -400,161 -399,433 1,278 144,433 399,433zm0 -166c-126,0 -202,-99 -204,-267 0,-167 76,-267 204,-267 127,0 203,100 204,267 1,168 -74,267 -204,267z"/>
  <path id="3" class="fil1" d="M7851 1892l0 664c0,10 8,18 18,18l230 6c284,0 459,-167 459,-437 0,-268 -139,-416 -425,-416 -123,0 -236,6 -358,6 -14,0 -24,6 -23,20 7,89 36,129 100,138zm261 529c-29,0 -43,-1 -60,-4 -8,-1 -12,-6 -12,-12l0 -517c30,-1 42,-2 82,-2 165,0 242,88 242,269 0,171 -91,266 -251,266z"/>
  <path id="4" class="fil1" d="M8726 1892l0 664c0,10 8,18 18,18l230 6c284,0 459,-167 459,-437 0,-268 -139,-416 -425,-416 -123,0 -236,6 -358,6 -14,0 -24,6 -23,20 7,89 36,129 100,138zm261 529c-29,0 -43,-1 -60,-4 -8,-1 -12,-6 -12,-12l0 -517c30,-1 42,-2 82,-2 165,0 242,88 242,269 0,171 -91,266 -251,266z"/>
  <path id="5" class="fil1" d="M9605 1649c-10,18 4,30 18,30l114 0c18,0 25,-7 32,-17l118 -151c11,-14 4,-36 -14,-36l-154 0c-17,0 -32,11 -41,26l-73 148zm-79 84c-14,0 -24,6 -23,20 7,89 36,129 100,138l0 664c0,10 8,18 18,18l153 0c10,0 18,-8 18,-18l0 -731c0,-56 -42,-99 -99,-99 -59,0 -108,6 -167,6z"/>
  <path id="6" class="fil1" d="M9934 1733c-14,0 -24,6 -23,20 7,89 36,129 100,138l0 664c0,10 8,18 18,18l347 0c75,-2 129,-44 126,-160 0,-11 -8,-14 -17,-12 -46,11 -85,12 -129,13l-145 0c-7,0 -12,-5 -12,-12l0 -578c0,-56 -42,-99 -99,-99 -59,0 -108,6 -167,6z"/>
  <path id="7" class="fil1" d="M5585 3333l0 664c0,10 8,18 18,18l362 0c74,0 129,-44 126,-160 0,-12 -8,-14 -17,-12 -46,13 -85,13 -129,13l-160 0c-7,0 -12,-5 -12,-12l0 -159c0,-7 5,-12 12,-12l222 0c10,0 18,-8 18,-18l0 -123c0,-10 -8,-18 -18,-18l-222 0c-7,0 -12,-5 -12,-12l0 -171 258 0c10,0 18,-8 18,-18l0 -123c0,-10 -8,-18 -18,-18l-524 0c-14,0 -24,6 -23,20 7,89 36,129 100,138z"/>
  <path id="8" class="fil1" d="M6183 3175c-14,0 -24,6 -23,20 7,89 36,129 100,138l0 664c0,10 8,18 18,18l347 0c75,-2 129,-44 126,-160 0,-11 -8,-14 -17,-12 -46,11 -85,12 -129,13l-145 0c-7,0 -12,-5 -12,-12l0 -578c0,-56 -42,-99 -99,-99 -59,0 -108,6 -167,6z"/>
  <path id="9" class="fil1" d="M6806 3175c-14,0 -24,6 -23,20 7,89 36,129 100,138l0 664c0,10 8,18 18,18l153 0c10,0 18,-8 18,-18l0 -326c0,-7 5,-12 12,-12l296 0c7,0 12,5 12,12l0 326c0,10 8,18 18,18l153 0c10,0 18,-8 18,-18l0 -805c0,-10 -8,-18 -18,-18l-153 0c-10,0 -18,8 -18,18l0 297c0,7 -5,12 -12,12l-296 0c-7,0 -12,-5 -12,-12l0 -222c0,-56 -42,-99 -99,-99 -59,0 -111,6 -167,6z"/>
  <path id="10" class="fil1" d="M7886 3175c-14,0 -24,6 -23,20 7,89 36,129 100,138l-232 655c-5,14 5,28 19,28l160 0c14,0 20,-7 24,-17l49 -145c4,-11 8,-16 19,-16l316 0c12,0 18,4 22,16l26 79c24,71 73,101 156,101 49,0 79,-13 95,-25 5,-4 5,-11 1,-16 -12,-17 -30,-44 -53,-107l-216 -607c-25,-70 -54,-111 -174,-111 -100,0 -190,6 -289,6zm392 496l-226 0c-10,0 -13,-5 -11,-13l106 -330 16 0c16,0 24,8 30,28l95 302c2,10 0,14 -10,14z"/>
  <path id="11" class="fil1" d="M9453 3978c-7,-20 -19,-71 -19,-163l0 -621c0,-10 -8,-18 -18,-18l-147 0c-10,0 -18,8 -18,18l0 523 -279 -499c-17,-30 -48,-48 -83,-48 -83,0 -135,6 -217,6 -14,0 -24,6 -23,20 7,89 36,129 100,138l0 664c0,10 8,18 18,18l147 0c10,0 18,-8 18,-18l0 -525 254 453c37,66 90,108 165,108 31,0 72,-12 94,-26 11,-7 17,-12 10,-30z"/>
  <path id="12" class="fil1" d="M9739 3175c-14,0 -24,6 -23,20 7,89 36,129 100,138l-232 655c-5,14 5,28 19,28l160 0c14,0 20,-7 24,-17l49 -145c4,-11 8,-16 19,-16l316 0c12,0 18,4 22,16l26 79c24,71 73,101 156,101 49,0 79,-13 95,-25 5,-4 5,-11 1,-16 -12,-17 -30,-44 -53,-107l-216 -607c-25,-70 -54,-111 -174,-111 -100,0 -190,6 -289,6zm392 496l-226 0c-10,0 -13,-5 -11,-13l106 -330 16 0c16,0 24,8 30,28l95 302c2,10 0,14 -10,14z"/>
  <path class="fil2" d="M0 7924l4 0 0 -7663 -2 0 0 -257 2 0 0 -3 257 0 0 3 12003 0 0 257 0 0 0 7921 -257 0 0 -1 -12007 0 0 -257zm261 0l11747 0 0 -7663 -11747 0 0 7663z"/>
 </g>
 <g id="vlk">
  <metadata id="CorelCorpID_2Corel-Layer"/>
  <g id="_494428352">
   <path class="fil3" d="M2851 6401c-8,-35 -46,-121 -62,-154 -69,18 -111,100 -148,160 -36,59 -81,142 -83,225 -81,-54 -39,-77 -185,-77 0,438 -212,297 -419,382 -142,58 -376,190 -536,203 21,-78 46,-27 46,-154 0,-85 -29,-196 -77,-231 -4,160 -96,322 -226,390 -75,40 -95,7 -98,118 320,0 483,11 791,-87l148 -52c-7,82 -67,74 -92,185 269,-22 450,-457 585,-493l46 293c13,-57 29,-107 44,-156 34,-106 51,-191 123,-293l67 -87c10,-13 20,-23 28,-33 0,182 -49,280 62,354 78,-336 288,-611 504,-867l110 -136c86,-171 116,-144 126,-259 -58,15 -27,18 -96,89l-270 300c-42,42 -49,56 -85,100 -52,62 -249,267 -304,282z"/>
   <path class="fil3" d="M1989 855c232,0 206,102 312,227 64,75 72,29 125,137 32,65 46,140 118,160l0 -92c155,82 -32,103 166,296 91,89 118,206 81,366 -163,38 -172,-14 -431,46 48,65 319,84 379,71 70,-15 104,-42 135,-97 24,-43 61,-114 71,-160 202,47 -52,67 379,130 50,7 102,21 145,24 -13,47 -58,99 -98,133l-17 14c-2,1 -6,4 -9,7 210,0 303,-27 401,-139 -114,-170 -366,-183 -628,-466 -182,-197 -119,-187 -433,-291 -286,-94 -420,-384 -602,-507 -50,33 -86,62 -92,139z"/>
   <path class="fil4" d="M2292 3699c0,227 -2,206 108,416 44,84 114,180 123,293l77 0c68,-292 402,-522 149,-1027 -42,-83 -128,-221 -196,-267 -84,158 -262,357 -262,585z"/>
   <path class="fil3" d="M1989 855c-168,112 -62,295 -62,493 -42,-22 -77,-37 -117,-68 -50,-38 -54,-70 -114,-86 0,107 -45,122 28,326 30,83 93,172 138,247 40,65 104,185 111,276 12,154 -79,167 -170,215 19,36 26,40 31,92 -59,5 -50,15 -123,15 20,74 37,25 62,92 -137,92 -161,49 -185,108 40,42 29,31 108,31l0 62c-113,0 -120,33 -185,77l64 74c-14,45 -113,171 -168,269 -62,112 -95,163 -128,303 88,-23 65,-91 154,-216 53,-75 114,-143 170,-215 55,-71 105,-133 163,-207 60,-77 106,-149 160,-225 475,-657 -23,-795 -46,-1078 84,0 85,-18 139,-46 0,-225 -26,-147 -55,-253 -30,-110 17,-197 24,-286z"/>
   <path class="fil3" d="M3421 2658c0,217 -77,160 -77,401 76,-20 121,-91 237,-69 93,18 166,54 271,54 -28,-104 -150,-118 -246,-262 48,-32 78,-56 154,-61 103,-6 145,29 169,-62 -110,0 -177,-54 -277,-77l0 -46c108,0 146,-11 231,-31 -57,-78 -213,-67 -414,-218 -43,-33 -69,-76 -125,-90 13,154 77,277 77,462z"/>
   <path class="fil3" d="M3514 3151c0,51 66,151 77,401 5,120 30,321 64,414 284,779 112,896 152,1065 40,-30 52,-87 66,-150 14,-64 21,-112 33,-198 10,-71 12,-145 7,-223 -8,-129 3,-42 32,-169 -48,-11 -45,-20 -92,-31 24,-36 66,-82 77,-123 -66,-14 -26,-2 -108,0 23,-48 12,-70 42,-129 44,-87 38,-41 5,-102 -72,19 -23,17 -68,43 -130,77 22,-89 22,-182 0,-52 -96,-28 -123,-15 0,-153 -56,-548 -169,-632 0,0 -15,29 -15,31z"/>
   <path class="fil4" d="M2646 4408c176,-15 172,-200 401,-200 193,0 98,222 92,246 422,-9 260,-508 31,-508 -150,0 -253,38 -357,167 -103,128 -112,191 -167,295z"/>
   <path class="fil4" d="M1999 4454c-11,-49 -46,-90 -46,-123 0,-40 42,-123 139,-123 199,0 231,187 385,200 -43,-184 -233,-462 -508,-462 -245,0 -394,499 31,508z"/>
   <path class="fil3" d="M1465 6617c67,-16 357,-221 487,-299 75,-45 80,-70 166,-112 137,-67 29,-80 247,-153 117,-40 364,-169 395,-283 -80,19 -99,62 -164,98 -131,73 -394,130 -531,270 -65,66 -94,11 -346,193 -126,91 -180,149 -253,286z"/>
   <path class="fil3" d="M1819 5400c452,239 552,153 1003,155 80,0 74,12 107,-32 -229,0 -729,-79 -933,-207 -47,-29 -54,-50 -114,-55 -2,85 -29,89 -62,139z"/>
   <path class="fil4" d="M2583 5305c252,0 594,-102 601,-385 -267,179 -370,211 -540,323 -38,25 -49,29 -61,62z"/>
   <path class="fil4" d="M2446 4917c0,77 61,138 108,169 175,-47 120,-212 83,-329 -20,-64 -8,-133 -67,-133 -60,0 -48,71 -69,132 -18,54 -55,96 -55,161z"/>
   <path class="fil4" d="M2384 4454c-13,54 -15,51 -15,123 117,27 199,15 339,15 101,0 70,-169 -108,-169 -81,0 -143,25 -216,31z"/>
   <path class="fil4" d="M1873 3259c156,0 488,-106 549,-189 -143,-12 -410,-17 -549,189z"/>
   <path class="fil4" d="M2954 4747c-151,35 -164,43 -236,-72 -38,-61 -2,-17 -72,-51 0,293 293,304 308,123z"/>
   <path class="fil4" d="M2169 4747c20,43 7,47 41,82 63,64 162,50 224,-33 39,-52 43,-85 43,-173 -119,63 -42,73 -120,127 -73,50 -107,3 -188,-3z"/>
   <path class="fil3" d="M2189 2149c302,0 387,95 416,-15l-401 -62c-1,54 2,41 -15,77z"/>
   <path class="fil5" d="M3498 3520l5 -5c0,0 -6,3 -5,5z"/>
   <path class="fil4" d="M1532 4376c32,157 95,246 139,354 22,54 156,244 183,277 45,53 111,105 162,128 54,25 121,64 179,72 -38,-67 -475,-357 -557,-765 -67,-329 -21,-471 40,-770l105 -267c-24,24 -114,161 -145,244 -49,132 -134,188 -122,393 -7,83 -5,228 17,334z"/>
  </g>
  <g id="_494435168">
   <path class="fil0" d="M1966 5254c-668,-223 -1043,-463 -968,-1224 38,-384 214,-472 489,-660 128,-88 145,-123 300,-225 -130,148 -555,663 -588,808 -148,638 285,981 767,1301z"/>
  </g>
  <path class="fil6" d="M1966 5254c-163,-58 -691,-382 -756,-551 -116,-305 -124,-132 -124,-548 0,-162 24,-297 98,-406 65,-96 135,-183 237,-267 51,-42 101,-62 122,-105 17,-34 209,-209 243,-232"/>
  <g id="_494435744">
   <path class="fil4" d="M2627 3034c174,-18 339,4 480,115 186,147 380,450 425,682 15,79 27,159 33,239 4,44 -4,48 28,74 -40,-17 -35,-26 -51,-69 -43,-115 -90,-196 -137,-303 -91,-208 -183,-393 -366,-538 -137,-108 -238,-171 -412,-201z"/>
  </g>
  <path class="fil6" d="M2627 3034c559,0 844,621 936,1083 0,0 14,21 30,28"/>
  <g id="_494436344">
   <path class="fil4" d="M3596 4435c45,141 10,492 -31,645 -62,228 -136,345 -275,534 -129,175 -258,293 -450,399 -39,22 -420,244 -407,258 0,0 1,0 1,0 0,0 -1,0 -1,0 -19,-13 387,-362 434,-398 173,-130 239,-186 362,-361 124,-175 175,-255 231,-461 46,-170 156,-452 137,-617z"/>
  </g>
  <path class="fil6" d="M3596 4435c45,130 -85,726 -171,871 -360,607 -469,525 -932,907 -10,8 -69,60 -60,58"/>
  <g id="_494436944">
   <path class="fil3" d="M1725 3076c-57,90 -128,156 -189,259 -180,301 -203,657 -164,999 33,291 144,611 360,817l42 37 -2 -1c28,19 15,8 39,33l0 0c-166,1 -358,-278 -429,-419 -168,-333 -215,-702 -122,-1064 59,-230 233,-571 464,-661z"/>
  </g>
  <path class="fil6" d="M1725 3076c-703,553 -471,1805 41,2124l45 19"/>
 </g>
</svg>
