<?xml version="1.0" encoding="UTF-8"?>
<!DOCTYPE svg PUBLIC "-//W3C//DTD SVG 1.1//EN" "http://www.w3.org/Graphics/SVG/1.1/DTD/svg11.dtd">
<!-- Creator: CorelDRAW X6 -->
<svg xmlns="http://www.w3.org/2000/svg" xml:space="preserve" width="164.045mm" height="164.147mm" version="1.1" style="shape-rendering:geometricPrecision; text-rendering:geometricPrecision; image-rendering:optimizeQuality; fill-rule:evenodd; clip-rule:evenodd"
viewBox="0 0 14216 14224"
 xmlns:xlink="http://www.w3.org/1999/xlink">
 <defs>
  <style type="text/css">
   <![CDATA[
    .fil1 {fill:black}
    .fil0 {fill:#01621D}
    .fil4 {fill:#151515}
    .fil5 {fill:#B1B1AE}
    .fil6 {fill:#D0D0A5}
    .fil2 {fill:#FBDF12}
    .fil3 {fill:white}
   ]]>
  </style>
 </defs>
 <g id="Vrstva_x0020_1">
  <metadata id="CorelCorpID_0Corel-Layer"/>
  <g id="_494352104">
   <path class="fil0" d="M9047 12004c-1,-243 238,-115 174,0 -16,29 -49,52 -88,50 -44,-2 -60,-28 -87,-50zm156 -763c39,-26 32,-14 73,-48 107,-90 131,-91 273,153l138 260c91,-9 167,-93 225,-140 36,62 37,58 36,156 -82,43 -214,154 -294,174 -66,-47 -250,-415 -291,-455 -76,-74 -77,22 -159,-100zm381 -208c15,-36 6,-13 54,-51l297 -248c49,-26 -8,15 43,-20 144,-100 206,-290 426,-320 234,-32 554,370 303,617 -64,63 -120,120 -187,177 -73,-86 -334,-361 -416,-416 -29,14 -24,14 -69,18l-16 37c-42,89 -72,67 -175,153 148,110 16,170 275,2 25,35 46,68 70,103 -55,36 -104,77 -155,121l63 94c32,42 1,2 25,29l207 -141c158,92 -174,312 -243,329 -53,-34 -84,-89 -121,-138 -35,-46 -70,-86 -107,-136 -111,-150 -88,-153 -189,-176 -75,-17 -28,6 -87,-33zm1027 -698c-85,-38 -87,46 -176,-31 14,-56 102,-151 138,-208l505 87c-32,-44 -289,-248 -348,-279 52,-40 64,-68 101,-118 93,69 187,145 282,222l194 170c36,26 -2,2 45,24l37 15c-57,244 -356,63 -590,70 38,53 102,97 155,139 56,44 117,80 157,138 -14,48 -34,79 -69,104 -64,-16 -229,-171 -287,-216l-143 -117zm467 -656c-207,16 -206,45 -106,-122 49,-81 63,-203 201,-184 115,16 227,43 336,65l313 68c-1,74 -21,105 -79,128 -59,23 -119,14 -162,-8 -27,104 -119,175 -139,262 29,44 170,122 2,243 -16,-59 -50,-75 -88,-122 -35,-44 -61,-66 -97,-112 -39,-50 -59,-68 -94,-114 -30,-39 -60,-64 -85,-104zm415 -747c-89,0 -125,24 -139,-52 -4,-24 20,-326 226,-331 224,-6 244,198 346,383 43,-56 51,-133 77,-201 15,-38 9,-30 28,-58l55 31c30,27 23,15 31,57 19,107 -79,229 -122,396l-103 0c-50,-77 -85,-172 -135,-264 -24,-45 -36,-85 -68,-123 -40,-47 -48,-62 -127,-64 -47,54 -70,128 -69,225zm-1422 -484c91,-59 255,-339 362,-416 192,356 396,706 591,1057 -151,-37 -142,-57 -263,-136 -44,-29 -86,-50 -129,-79l-562 -425zm1769 -400c98,0 598,172 360,464 -154,189 -840,27 -617,-357 23,-40 36,-56 81,-75 75,-31 104,-32 176,-32zm17 -174c18,81 16,131 -86,138l-69 -155c-20,-54 -34,-98 -35,-172 69,32 585,82 660,103 34,9 91,-3 17,155 -174,-2 -313,-69 -486,-69zm-138 -676c0,-160 477,149 675,227 10,4 22,15 24,10 2,-4 8,3 12,5 -6,73 -22,72 -52,121 -218,1 -272,-110 -503,-225l-35 260c-50,33 -65,52 -147,52l26 -451zm146 -1380c-165,64 -155,44 -138,191 -98,28 -168,-27 -183,-114 -31,-188 248,-212 535,-348l-63 -186c50,-35 62,-35 119,-49 42,53 208,459 213,534l-131 39 -67 -175c-69,8 -216,81 -285,108zm219 -771c-68,69 -311,191 -412,247 -191,105 -327,37 -419,-128 -177,-316 46,-402 315,-549 166,-90 1,-83 134,-183 73,20 124,125 123,220 -214,178 -582,233 -438,447 131,195 382,-107 627,-193 21,54 46,94 70,138zm-1445 -954c50,-32 112,-38 207,-60l394 -91c73,-52 -21,-89 99,-147 57,40 144,179 175,245 61,130 -33,195 -95,272 -59,74 -119,156 -182,235 -58,74 -112,168 -176,225 -181,-117 -36,-251 -1,-298l-173 -271 -175 31c-24,-46 -56,-84 -73,-140zm-238 -311c8,-81 22,-290 46,-341 -89,19 -160,198 -271,257 -51,-29 -84,-52 -107,-107l251 -289c257,-292 79,-95 162,-326 84,16 134,78 178,124 35,84 -135,223 -186,296 210,-13 460,-176 549,57l-431 75 -35 496c-126,-21 -172,-89 -156,-241zm-804 -717c85,30 45,49 135,118 39,30 113,73 162,38 90,-65 -69,-220 -91,-319 -31,-141 68,-263 216,-253 121,8 259,109 299,177 -29,56 -42,63 -95,104 -44,-45 -147,-148 -238,-104 -50,95 53,183 90,275 85,214 -144,394 -399,225 -106,-70 -143,-135 -79,-261zm-348 -1061c91,-71 164,-33 232,46 -210,110 -172,85 -300,38l68 -83zm-287 23c80,58 92,39 88,176 -3,86 -17,144 -15,238 105,-43 317,-343 448,-134 -67,72 -201,147 -291,214 -127,95 -176,110 -234,277l3 1523c131,-101 254,-592 378,-664 2,-1 352,-154 402,-156l28 28c1,3 15,4 4,74 -10,65 -82,184 -111,255 -106,252 -181,408 -406,565 -88,62 -200,137 -295,190l0 469 491 -447c47,-53 14,-40 82,-74 33,-17 75,-31 122,-35l699 584c147,125 601,523 705,579 0,131 -199,884 -249,1034 -118,350 -63,239 -132,509 -41,160 -122,324 -122,519 -222,5 -349,-13 -547,-42 -166,-24 -370,-25 -547,-28 1,78 -11,193 -26,269 -12,59 -23,67 -34,122l-12 74 118 151c114,88 551,608 669,753 37,46 74,83 102,123 -65,90 -373,307 -498,438 -108,112 -366,317 -498,421 -118,93 -203,200 -321,286l0 1752 0 70 0 1770c261,-62 877,-291 1115,-395 150,-66 158,-89 247,-135 364,-188 342,-164 702,-408l341 -232c46,-35 57,-56 101,-91 77,-62 145,-101 214,-167l391 -354c285,-280 527,-596 778,-904l367 -570c52,-86 95,-168 134,-248l122 -243c207,-424 190,-458 328,-799 48,-119 229,-778 240,-887 13,-127 31,-229 51,-331 56,-282 73,-742 73,-1037 0,-830 -46,-732 -124,-1385l-155 -590c-49,-244 -18,-100 -95,-287 -38,-91 -54,-173 -87,-276 -34,-107 -72,-184 -111,-271 -111,-249 -157,-309 -254,-509 -95,-196 -140,-236 -202,-353 -27,-50 -38,-78 -67,-124l-642 -849c-71,-69 -113,-132 -183,-200 -130,-128 -244,-246 -373,-373l-405 -341c-142,-97 -71,-32 -221,-160 -203,-174 -916,-576 -1187,-687 -236,-97 -845,-388 -1098,-393l1 1714z"/>
   <path class="fil0" d="M4468 10859c57,-31 100,-51 154,-86 47,24 91,45 121,86 -29,36 -82,65 -141,69 -74,5 -88,-29 -134,-68zm-1389 -504l14 20c13,20 9,14 19,32l105 156 105 1c-1,-117 -40,-280 -20,-330 159,-398 472,86 517,126 55,49 55,39 108,99 -24,114 -121,173 -172,260 73,-1 185,-37 256,-56 57,-15 73,-29 113,-16l171 138c114,97 10,228 15,385 75,-41 123,-65 199,-112 81,-49 169,-41 197,77 -82,18 -257,126 -333,170 -129,75 -170,110 -257,247 -37,-29 -68,-56 -121,-70 15,-54 58,-93 90,-135 90,-118 137,-429 135,-576 -134,1 -222,69 -382,69 0,75 1,379 -26,427 -30,52 -113,-5 -134,-58 -33,-87 37,-309 40,-437 -89,57 -161,197 -262,226l-101 -90c85,-67 148,-148 220,-241 243,-310 109,-82 159,-294 -185,43 -89,-101 -262,-138 -81,149 84,285 -46,422 -41,43 -50,61 -127,65 -184,9 -374,-179 -251,-339 4,-6 24,-26 26,-27zm86 -780c65,-26 96,61 158,153 42,63 114,138 136,211 -30,43 -30,53 -87,70 -52,-37 -84,-102 -120,-157l-110 48c-34,22 -11,6 -30,22 33,50 88,112 104,173l-64 73c-65,-22 -101,-75 -143,-144 -55,13 -103,37 -139,70l117 161c22,35 24,-2 37,65 -147,35 -141,24 -213,-79 -27,-38 -45,-63 -72,-101 -40,-55 -52,-44 -59,-114 57,-16 439,-290 453,-312l6 -68c6,-38 9,-38 27,-72zm0 0l-121 20c-37,-85 -55,-163 -121,-196 -89,-44 -217,26 -277,73l-19 16c-170,163 62,256 86,348 -231,143 -420,-312 -146,-512 310,-226 590,-14 598,251zm87 -278c79,7 103,53 120,121 -59,0 -233,19 -258,-104 9,-51 16,-50 39,-98 8,-16 14,-30 22,-47l23 -45c51,37 82,104 53,173zm-417 -399c0,163 -18,177 -117,264 -113,99 -388,169 -522,11 -61,-72 -101,-174 -94,-250 23,-269 406,-450 615,-271 47,40 118,161 118,246zm331 -330c-2,-83 34,-215 34,-467 274,-2 451,-75 745,-69 -53,73 -178,163 -256,228 -137,114 -332,262 -523,308zm-888 -450c36,67 44,162 63,198 56,109 92,-1 286,-8 20,42 32,75 34,138 -56,27 -597,171 -676,174 -2,-4 -5,-14 -5,-12l-47 -126c34,-17 226,-66 278,-70 1,-99 -32,-196 -52,-278 -52,25 -205,68 -278,69l-54 -136c77,-2 509,-120 544,-154 18,-17 17,-38 53,-71 69,-64 97,-2 111,74 34,182 -119,135 -257,202zm-496 -382c204,1 370,-67 568,-69 14,-128 109,-116 121,-105 28,60 16,125 18,208 -87,69 -559,121 -694,121l-13 -156zm533 -381c33,-63 138,-177 138,-17l-1 138c-75,38 -573,100 -658,18 -103,-98 -88,-296 47,-321 146,-27 -100,181 90,202 95,10 269,-19 384,-19zm-414 -1508c20,-86 22,-172 83,-211 63,-34 491,102 571,142 236,118 69,498 -121,362 24,-40 104,-109 69,-183 -21,-45 -135,-67 -197,-85 -458,-135 -135,19 -404,-25zm310 -938c1,-62 13,-94 51,-143 108,16 343,114 455,155 175,65 245,191 160,412 -67,174 -171,259 -377,188 -573,-198 -175,-50 -482,-74 17,-226 69,-259 268,-182 98,38 316,137 397,83 40,-27 84,-103 68,-168 -38,-156 -369,-155 -541,-273zm554 -968l566 315c48,20 58,19 94,46 -13,189 -156,163 -347,163l-308 -2c78,85 308,163 411,256 -9,63 -37,87 -66,136 -129,-48 -358,-208 -501,-282 -65,-34 -220,75 -198,-37l63 -121c39,-75 36,-93 147,-96 155,-4 340,24 477,8 -123,-90 -293,-167 -422,-249 12,-31 16,-42 33,-71 2,-4 16,-26 20,-31 26,-34 10,-17 33,-33zm1306 -333c-46,152 -148,134 -283,77l-215 233c24,81 52,92 74,161 -32,38 -76,93 -119,115 -54,-53 -264,-473 -315,-567 -91,31 -83,20 -157,-16 16,-65 122,-181 173,-233 126,-129 263,-12 558,109l248 100c42,20 17,7 36,20zm-890 -506l46 167c3,65 -38,80 -75,132l-50 -62c-57,-117 -18,-172 79,-237zm878 -433c55,-33 95,-77 148,-101l21 443c52,10 418,91 467,128 -67,225 -422,34 -592,3 49,112 174,187 224,314 -42,26 -72,56 -124,84 -90,-90 -160,-188 -238,-284 -42,-52 -72,-103 -114,-147 -98,-102 -44,13 -188,-73 5,-52 -14,-33 70,-106 44,-38 62,-51 145,-52 58,76 135,159 196,236l-16 -445zm1238 11243l0 -2324 -174 104c26,54 87,354 87,433 -133,-2 -166,-52 -185,-160 -17,-99 -38,-230 -40,-325 -21,25 -22,28 -41,63 -18,33 -24,48 -39,83 -29,71 -46,110 -76,167 -79,-2 -101,-24 -155,-54l156 -328c13,-25 75,-140 79,-163 17,-109 -24,42 -27,-201 119,33 112,32 207,88 0,99 -62,201 -87,295 59,-29 268,-134 296,-174l0 -799 -484 0 -278 -364c-92,-117 -204,-228 -298,-344l-435 -518c-58,-58 -106,-111 -169,-158 2,-4 5,-14 6,-11l67 -195c39,-140 163,-513 219,-613 114,-204 695,-184 835,-276 -4,-115 -73,-227 -69,-452 -185,1 -358,-7 -519,21 -185,32 -285,50 -505,50 -142,-216 -92,-487 -86,-676 9,-282 -34,-1197 11,-1342 31,-100 157,-235 215,-323 124,-188 217,-285 348,-449 96,-120 286,-364 397,-436 112,30 586,535 746,642l0 -330c-73,-111 -214,-209 -291,-282 -40,-38 -65,-66 -103,-105l-404 -375c2,-4 5,-15 5,-13l99 -318c46,10 84,22 132,41 107,43 235,154 315,240 116,125 167,270 218,424 1,2 12,36 13,39l10 24c1,3 3,8 6,12l0 -1941c-64,18 -189,74 -255,58l-28 -118c71,-23 217,-80 297,-77 -41,-103 -16,-1879 -14,-2155 -92,26 -193,50 -288,77 -104,30 -198,68 -289,93l-521 225c-88,38 -157,71 -250,114 -189,86 -545,309 -724,420 -157,97 -277,210 -438,309 -60,37 -60,43 -105,86 -42,40 -63,47 -105,87 -62,59 -137,126 -204,177 -113,86 -270,262 -376,369l-358 405c-30,38 -50,53 -81,92 -34,43 -49,68 -81,110l-450 677c-52,85 -72,149 -123,241 -153,274 -246,462 -366,780l-191 554c-66,197 -109,400 -151,613 -225,1137 -155,1941 56,3037 32,167 209,721 276,868 72,158 157,349 228,518 18,44 38,81 60,131 65,150 250,479 340,596 55,72 97,153 150,232 201,298 269,389 493,635 174,192 145,202 372,391 174,145 279,297 595,532l663 465c154,100 574,315 748,396 206,95 879,365 1122,388z"/>
   <path class="fil1" d="M5299 5170c-160,-107 -634,-612 -746,-642 -110,72 -300,316 -397,436 -132,164 -224,261 -348,449 -58,88 -184,223 -215,323 -45,145 -2,1060 -11,1342 -6,189 -56,460 86,676 220,0 320,-18 505,-50 161,-28 334,-19 519,-21 -4,225 65,337 69,452 -141,92 -722,72 -835,276 -56,100 -180,473 -219,613l-67 195c-1,-3 -4,8 -6,11 63,47 111,99 169,158l435 518c94,117 206,227 298,344l278 364 484 0c186,2 304,-17 486,-17 167,0 335,1 503,-1 119,-221 78,-175 308,-403l334 -394 -289 -473 12 -436 -411 132c-42,13 -73,18 -111,27l-312 89c-52,-50 -306,-303 -325,-350l-14 -55c-1,-5 -2,-9 -2,-14 -6,-69 28,-115 54,-180 19,-47 32,-78 50,-124l47 -109c113,76 264,302 295,416 75,-19 115,-93 166,-137 29,-58 189,-222 250,-249 88,-110 186,-180 279,-308l-467 -648 -152 -152c-189,-57 -225,-90 -498,-91 13,159 -75,462 -118,631l-84 332c-70,-22 -45,-27 -104,-142 -29,-56 -58,-97 -87,-156l-342 -612c-32,-57 -67,-104 -89,-154 -65,-146 -110,-257 -46,-334l754 -912 484 296c150,93 367,180 522,261l-86 -329c-7,-23 -12,-45 -22,-81 -9,-32 -19,-58 -26,-79 -48,-145 -135,-378 -90,-500l344 -489c31,-43 62,-78 90,-119l346 -486c24,-32 17,-27 46,-59 1,-1 27,-25 27,-25 19,-16 -5,-7 31,-20 55,-67 172,126 215,184l182 252c153,228 422,560 556,763 61,92 17,133 -44,317 -55,165 -217,512 -180,670l971 -568 850 1019c-15,55 -274,432 -369,654 -47,109 -192,437 -268,513 -61,61 -88,112 -129,136 -28,-73 -6,-172 -34,-260l-130 -460c-23,-101 -19,-151 -59,-235 -155,-2 -406,8 -501,106l-364 485c-303,422 -172,312 119,659 61,72 260,280 329,328 143,-251 171,-372 365,-416 19,77 49,146 63,213 68,329 162,179 -213,556 -98,99 -227,9 -464,-49 -117,-29 -390,-122 -478,-129 -1,143 63,246 53,399 -4,66 -13,71 -42,115 -83,125 -167,255 -237,387 -2,231 -15,45 33,279 15,74 37,220 62,285 34,86 122,112 234,113 126,2 202,18 330,17 227,-2 435,31 623,71 211,46 168,-59 435,-245 118,-86 204,-193 321,-286 133,-104 390,-309 498,-421 126,-131 433,-348 498,-438 -27,-40 -64,-77 -102,-123 -118,-146 -555,-666 -669,-753l-118 -151 12 -74c12,-55 22,-63 34,-122 16,-75 27,-191 26,-269 177,3 381,4 547,28 198,28 324,47 547,42 0,-195 81,-360 122,-519 70,-270 15,-159 132,-509 50,-150 248,-903 249,-1034 -104,-55 -558,-454 -705,-579l-699 -584c-47,4 -89,17 -122,35 -67,35 -35,21 -82,74l-491 447 -330 260c-91,-61 -195,-233 -295,-260 48,-101 75,-251 117,-369 127,-359 300,-726 300,-1106 -78,0 -152,-22 -213,-30 -76,-10 -136,0 -212,-14l-776 -126c-152,-21 -238,-38 -413,-38 -81,2 -137,33 -208,52 -70,19 -129,35 -205,55 -127,34 -248,81 -378,125 -210,70 -483,119 -720,235l-33 18c23,37 61,485 110,636 48,146 165,489 52,602 -66,66 -183,194 -253,241l-204 -194z"/>
   <path class="fil2" d="M6860 12489c-88,-2 -128,-40 -146,-119 -44,-194 214,144 215,-176 0,-93 19,-252 -19,-311 -3,-4 -14,-15 -17,-19 -106,-139 55,-161 192,-69 1,149 15,317 -6,461 -22,155 -48,232 -219,232zm-867 -243c15,-29 24,-47 41,-81 44,-87 149,-273 168,-353 -90,-24 -75,-101 -57,-119 25,-25 90,1 149,10 133,20 214,11 248,134l112 651c-259,0 -146,-67 -202,-161 -29,-49 13,-18 -71,-34l-230 -30c-6,73 -20,57 -35,121 -33,0 -112,4 -140,-1 -83,-15 -50,-1 19,-137zm1119 -5953c124,31 633,341 771,437 -19,39 -41,129 -59,183 -191,572 -36,472 -451,746 -87,58 -205,132 -272,198 19,696 19,1372 19,2081 -75,-36 -50,6 -118,-55 -29,-27 -47,-54 -73,-83l-334 394c-229,228 -189,182 -308,403 -167,2 -335,1 -503,1 -182,0 -300,19 -486,17l0 799c46,4 109,24 146,44 174,95 449,126 491,238 89,234 -180,304 -187,308 41,50 46,103 71,171 21,55 47,96 50,176 -120,1 -153,-18 -182,-78 -57,-117 -20,-257 -130,-287 -2,69 -45,193 -69,243 -57,-2 -118,-16 -156,-35 33,-69 66,-188 90,-274 113,-410 105,-156 28,-382 -2,-5 -8,-17 -9,-26 -1,-7 -3,-9 -5,-13l-138 87 0 2324c19,53 11,37 82,57 34,10 67,20 107,32 208,62 876,149 1131,170 153,13 359,1 518,1l2 -3070c-38,-59 -83,-88 -132,-163l-336 -531c114,-27 273,-176 416,-208l52 538c3,-173 0,-347 1,-520 0,-188 -50,-302 104,-417 70,-133 153,-262 237,-387 29,-44 38,-48 42,-115 9,-153 -54,-256 -53,-399 88,7 361,100 478,129 238,59 366,148 464,49 375,-376 280,-227 213,-556 -14,-67 -43,-136 -63,-213 -194,44 -222,164 -365,416 -70,-48 -269,-255 -329,-328 -291,-346 -421,-236 -119,-659l364 -485c94,-98 346,-108 501,-106 40,84 36,134 59,235l130 460c28,89 6,187 34,260 41,-23 68,-74 129,-136 75,-75 221,-404 268,-513 95,-222 355,-599 369,-654l-850 -1019 -971 568c-37,-158 126,-505 180,-670 61,-185 105,-225 44,-317 -134,-203 -403,-535 -556,-763l-182 -252c-43,-58 -160,-251 -215,-184 96,25 71,88 70,208 -3,402 24,1737 -9,1923z"/>
   <path class="fil2" d="M6416 2386c82,186 -161,266 -317,249 -348,-38 -505,-714 46,-805 129,-21 110,9 112,147 -481,4 -311,520 -58,500 48,-4 92,-25 126,-47 59,-38 37,-49 92,-44zm584 -343l-8 134 -215 31 22 168 290 -42c1,182 -32,155 -314,187l-89 6c-4,0 -10,-2 -13,-3 -3,0 -11,1 -13,-4 -2,-5 -9,-2 -17,-4l-64 -590c-42,-37 -52,-18 -80,-55 -22,-30 -20,-64 -10,-96l496 -47 8 134 -249 35 22 165 237 -17zm-1010 -345c43,-118 22,-87 164,-120 -68,416 -325,183 -370,101 136,-36 105,-40 206,19zm-692 -1404c-2,276 -27,2052 14,2155 32,37 35,61 42,120l-56 17 0 1941c1,120 36,168 35,313 -15,9 17,28 -34,0l0 330 204 194c70,-48 187,-176 253,-241 114,-113 -4,-455 -52,-602 -49,-151 -87,-599 -110,-636l33 -18c236,-116 510,-165 720,-235 131,-43 251,-90 378,-125 76,-21 135,-36 205,-55 71,-20 127,-50 208,-52l-2 -3348c-283,0 -941,43 -1202,97l-433 88c-75,21 -125,41 -202,58z"/>
   <path class="fil3" d="M8022 11709c109,-26 277,-210 427,6 122,175 -64,330 -98,479 60,-1 116,-18 159,-34 53,-20 101,-61 101,16 0,117 -82,117 -173,139 -81,19 -165,52 -260,52 -14,-166 -33,-114 49,-247 140,-226 119,-238 55,-361 -141,0 -110,59 -226,87 -6,-81 -24,-54 -35,-139zm-885 -971l6 352c-1,-2 -3,8 -5,12l-2 3070c354,1 694,-6 978,-65l448 -72c75,-15 140,-25 213,-47 214,-65 161,-20 185,-75l0 -1770c-64,15 -49,28 -121,35l-50 -124c-37,-105 -99,-239 -124,-345 -80,54 -84,89 -191,17 6,-74 178,-253 260,-260l167 458c12,37 14,46 26,79l33 71 0 -1752c-267,186 -224,291 -435,245 -188,-41 -396,-73 -623,-71 -128,1 -204,-15 -330,-17 -111,-2 -200,-27 -234,-113 -25,-65 -47,-211 -62,-285 -48,-234 -35,-48 -33,-279 -154,114 -104,228 -104,417 0,173 2,348 -1,520z"/>
   <path class="fil3" d="M7876 2531l154 -589c-42,-41 -68,-68 -54,-150 59,-18 72,-5 76,-4 220,20 175,101 96,376 53,-19 179,-131 233,-175 112,-92 119,-95 284,-37 -37,73 -275,235 -340,294l145 343c1,3 24,60 24,61 7,37 7,22 -3,46 -134,45 -195,-68 -234,-172 -38,-100 -78,-205 -110,-307 -30,42 -85,250 -105,367 -64,-16 -107,-18 -165,-53zm-427 -163c106,0 152,-78 71,-149 -67,-58 -120,-65 -192,-138 -148,-150 6,-379 208,-355l215 37 -35 134c-99,16 -157,-72 -263,28 -1,120 124,132 210,201 75,60 105,178 44,283 -62,105 -505,232 -484,-104 70,15 127,63 208,63l17 0zm-312 1032c175,0 261,16 413,38l776 126c75,14 135,4 212,14 61,8 135,30 213,30 0,380 -173,747 -300,1106 -42,118 -68,268 -117,369 99,27 204,199 295,260l330 -260 0 -469 -139 71c15,-64 38,-118 64,-179 28,-66 68,-109 75,-184l-3 -1523 -50 68c-60,-13 -88,-33 -137,-72 34,-136 110,-154 113,-329 3,-137 -5,-316 12,-448 65,0 9,-7 65,11l-1 -1714 -198 -63c-417,-120 -1204,-199 -1625,-198l2 3348z"/>
   <path class="fil3" d="M5999 7231c39,-12 51,12 51,12 152,117 106,127 106,127 0,-3 -2,9 -4,13l467 648c-93,128 -191,198 -279,308 27,28 14,20 -28,62 -64,64 -132,173 -222,187 -51,44 -90,119 -166,137 -30,-114 -182,-341 -295,-416l-47 109c-18,46 -31,77 -50,124 -26,65 -59,111 -54,180 0,5 1,9 2,14l14 55c18,47 272,301 325,350l312 -89c37,-10 68,-15 111,-27l411 -132 -12 436 289 473c25,28 43,56 73,83 68,62 43,20 118,55 1,-710 0,-1385 -19,-2081 -91,-50 -65,49 -341,-160 -260,-198 -234,-97 -315,-310l-193 -657c20,-12 35,-21 55,-33 28,-17 21,-14 55,-32l186 -109c4,-3 17,-10 22,-13l208 -121c123,-66 178,-138 333,-128 33,-186 5,-1522 9,-1923 1,-119 26,-183 -70,-208 -36,13 -12,4 -31,20 0,0 -26,25 -27,25 -29,31 -22,26 -46,59l-346 486c-28,40 -59,76 -90,119l-344 489c-45,122 42,354 90,500 7,21 17,47 26,79 10,36 16,58 22,81l86 329c-155,-81 -372,-168 -522,-261l-484 -296 -754 912c-65,77 -19,188 46,334 22,50 57,97 89,154l342 612c29,59 58,100 87,156 59,115 33,120 104,142l84 -332c43,-169 130,-472 118,-631 274,1 309,34 498,91z"/>
   <path class="fil4" d="M8959 13913c-24,55 29,10 -185,75 -73,22 -138,32 -213,47l-448 72c-284,59 -624,66 -978,65 -159,0 -365,12 -518,-1 -254,-21 -923,-108 -1131,-170 -40,-12 -73,-22 -107,-32 -70,-20 -63,-4 -82,-57 -242,-23 -915,-293 -1122,-388 -175,-80 -595,-295 -748,-396l-663 -465c-316,-236 -421,-388 -595,-532 -227,-189 -198,-199 -372,-391 -223,-246 -292,-337 -493,-635 -53,-79 -95,-160 -150,-232 -90,-117 -274,-446 -340,-596 -22,-50 -42,-87 -60,-131 -71,-169 -156,-360 -228,-518 -67,-148 -244,-701 -276,-868 -211,-1096 -281,-1900 -56,-3037 42,-212 85,-415 151,-613l191 -554c120,-318 214,-506 366,-780 51,-92 71,-156 123,-241l450 -677c32,-42 47,-67 81,-110 31,-39 51,-55 81,-92l358 -405c106,-107 263,-283 376,-369 67,-51 142,-118 204,-177 42,-40 63,-46 105,-87 45,-43 44,-49 105,-86 161,-98 281,-211 438,-309 179,-111 535,-334 724,-420 93,-43 163,-76 250,-114l521 -225c91,-26 185,-63 289,-93 95,-27 196,-51 288,-77 77,-17 127,-37 202,-58l433 -88c261,-53 920,-96 1202,-97 421,-1 1208,78 1625,198l198 63c253,4 861,295 1098,393 271,111 983,513 1187,687 150,128 79,63 221,160l405 341c129,127 243,245 373,373 69,68 112,131 183,200l642 849c29,46 40,74 67,124 63,117 107,157 202,353 97,200 143,260 254,509 39,87 77,164 111,271 33,104 50,185 87,276 78,187 46,43 95,287l155 590c77,654 124,556 124,1385 0,295 -17,755 -73,1037 -20,102 -38,203 -51,331 -11,109 -192,768 -240,887 -138,341 -122,374 -328,799l-122 243c-38,80 -81,162 -134,248l-367 570c-251,308 -493,624 -778,904l-391 354c-69,66 -137,105 -214,167 -43,35 -55,56 -101,91l-341 232c-360,244 -338,220 -702,408 -89,46 -97,69 -247,135 -238,104 -854,333 -1115,395zm-8934 -7321c0,279 -45,589 -15,865 24,215 42,585 76,774 80,447 189,947 355,1363l258 592c79,195 202,367 298,552 117,226 262,440 416,642 34,45 60,64 97,111 68,87 120,160 185,248 127,171 469,511 625,642 84,71 155,125 233,200 181,176 401,307 604,454 168,121 346,223 527,323l140 68c54,26 93,45 146,80 157,104 849,367 1051,423l682 166c65,13 134,31 188,37 86,9 112,5 188,21 388,81 784,71 1197,72 288,0 548,-11 796,-54 234,-41 500,-63 720,-130 424,-129 499,-128 970,-314 350,-138 821,-370 1130,-570l499 -352c74,-56 170,-118 236,-180l232 -201c151,-122 393,-381 523,-535 34,-40 66,-67 103,-105 69,-71 125,-163 190,-243 211,-258 277,-392 442,-616 114,-155 144,-247 238,-404 178,-297 276,-550 399,-868 124,-320 231,-644 304,-980l157 -1334 -18 -642c0,-310 -32,-628 -94,-930 -66,-323 -90,-351 -159,-622 -17,-65 -17,-110 -35,-173 -18,-63 -38,-83 -59,-132l-93 -288c-93,-282 -237,-547 -369,-810 -125,-249 -280,-494 -447,-715 -62,-82 -99,-156 -161,-238 -65,-88 -119,-124 -181,-200 -64,-78 -104,-149 -175,-224l-182 -199c-267,-267 -533,-504 -832,-729 -301,-227 -613,-429 -942,-619 -162,-93 -357,-173 -532,-249 -102,-44 -178,-78 -280,-119l-589 -193c-115,-33 -123,-10 -288,-58 -289,-84 -596,-122 -893,-147 -604,-51 -823,-77 -1473,-10 -47,5 -124,11 -188,20l-869 173c-147,21 28,-41 -132,1 -69,18 -97,31 -161,50 -215,64 -414,122 -613,219 -183,89 -394,163 -575,258 -352,185 -706,403 -1023,642 -42,31 -80,59 -119,89l-342 282c-106,108 -346,316 -421,412l-903 1179c-154,269 -314,527 -430,819 -41,102 -86,185 -129,287l-114 302c-67,198 -149,437 -189,644 -24,121 -48,239 -69,347 -52,263 -85,554 -108,829z"/>
   <path class="fil1" d="M7102 7858c67,-66 184,-140 272,-198 415,-274 260,-174 451,-746 18,-54 40,-144 59,-183 -138,-95 -647,-406 -771,-437 -156,-10 -211,62 -333,128l-208 121c-4,3 -17,10 -22,13l-186 109c-34,18 -27,15 -55,32 -20,12 -35,22 -55,33l193 657c81,213 54,113 315,310 276,210 250,110 341,160z"/>
   <path class="fil1" d="M3079 10356c-2,1 -22,21 -26,27 -123,160 68,348 251,339 77,-4 86,-22 127,-65 130,-137 -35,-273 46,-422 173,37 76,181 262,138 -50,212 84,-16 -159,294 -72,92 -135,174 -220,241l101 90c101,-28 173,-169 262,-226 -3,129 -73,351 -40,437 20,54 104,110 134,58 28,-48 26,-351 26,-427 160,0 247,-68 382,-69 3,147 -45,458 -135,576 -32,42 -75,82 -90,135 52,14 83,41 121,70 87,-138 127,-173 257,-247 76,-44 251,-152 333,-170 -28,-117 -117,-126 -197,-77 -77,47 -124,72 -199,112 -5,-156 98,-287 -15,-385l-171 -138c-40,-14 -56,1 -113,16 -71,19 -183,55 -256,56 51,-88 148,-146 172,-260 -53,-60 -53,-50 -108,-99 -45,-40 -358,-524 -517,-126 -20,50 18,213 20,330l-105 -1 -105 -156c-11,-19 -7,-12 -19,-32l-14 -20z"/>
   <path class="fil1" d="M5698 11865l-87 0c16,-70 46,-118 52,-191 51,33 51,36 122,52 -1,119 28,137 -87,139zm-399 -277l138 -87c2,4 4,6 5,13 1,8 8,21 9,26 77,226 86,-28 -28,382 -24,85 -57,205 -90,274 38,19 98,33 156,35 24,-50 68,-174 69,-243 110,30 73,170 130,287 29,59 62,78 182,78 -2,-80 -29,-120 -50,-176 -26,-68 -31,-122 -71,-171 7,-4 276,-74 187,-308 -43,-111 -317,-143 -491,-238 -37,-20 -100,-40 -146,-44 -28,40 -237,145 -296,174 25,-93 87,-195 87,-295 -95,-56 -89,-55 -207,-88 4,244 44,92 27,201 -4,23 -66,138 -79,163l-156 328c54,30 76,52 155,54 31,-57 48,-96 76,-167 14,-35 21,-50 39,-83 19,-35 20,-38 41,-63 2,95 23,226 40,325 19,108 52,158 185,160 0,-80 -61,-380 -87,-433l174 -104z"/>
   <path class="fil1" d="M10225 10650c79,-56 178,-186 336,-22 122,128 116,259 -23,353 -61,-42 -111,-98 -157,-157 -51,-66 -113,-106 -156,-175zm-641 383c59,40 12,16 87,33 101,23 78,26 189,176 37,50 72,90 107,136 37,49 68,105 121,138 69,-17 401,-237 243,-329l-207 141c-24,-27 8,13 -25,-29l-63 -94c51,-44 100,-85 155,-121 -24,-36 -45,-69 -70,-103 -260,168 -127,108 -275,-2 103,-86 133,-65 175,-153l16 -37c45,-5 40,-4 69,-18 82,55 343,330 416,416 67,-57 123,-113 187,-177 250,-247 -70,-649 -303,-617 -220,30 -282,220 -426,320 -51,36 5,-6 -43,20l-297 248c-49,38 -39,14 -54,51z"/>
   <path class="fil1" d="M8960 4321c-7,75 -47,118 -75,184 -26,61 -49,115 -64,179l139 -71c94,-53 206,-128 295,-190 225,-157 300,-314 406,-565 30,-71 102,-191 111,-255 11,-70 -3,-71 -4,-74l-28 -28c-49,2 -400,155 -402,156 -124,72 -247,563 -378,664z"/>
   <path class="fil1" d="M5299 4839c51,29 19,10 34,0 1,-145 -34,-193 -35,-313 -2,-4 -4,-9 -6,-12l-10 -24c-1,-3 -13,-37 -13,-39 -51,-154 -102,-299 -218,-424 -79,-86 -208,-197 -315,-240 -48,-19 -86,-31 -132,-41l-99 318c-1,-2 -3,9 -5,13l404 375c38,39 64,66 103,105 76,73 218,171 291,282z"/>
   <path class="fil1" d="M3182 4718c-103,-93 -333,-171 -411,-256l308 2c191,1 334,27 347,-163 -35,-27 -46,-25 -94,-46l-566 -315c-23,17 -6,0 -33,33 -4,5 -18,27 -20,31 -17,29 -21,40 -33,71 129,82 299,160 422,249 -137,16 -322,-12 -477,-8 -110,3 -107,21 -147,96l-63 121c-21,112 133,3 198,37 143,73 371,234 501,282 30,-50 57,-73 66,-136z"/>
   <path class="fil1" d="M10070 8448l562 425c42,30 85,51 129,79 121,79 112,99 263,136 -195,-351 -399,-701 -591,-1057 -107,77 -272,358 -362,416z"/>
   <path class="fil1" d="M3338 3486c29,-29 269,103 309,129l-151 162c-45,-38 -60,-84 -96,-143 -25,-42 -92,-118 -62,-148zm735 122c-19,-14 7,0 -36,-20l-248 -100c-295,-121 -432,-238 -558,-109 -51,52 -157,168 -173,233 74,35 66,47 157,16 51,94 261,514 315,567 43,-23 87,-77 119,-115 -22,-70 -50,-80 -74,-161l215 -233c135,57 237,75 283,-77z"/>
   <path class="fil1" d="M11045 4163c3,-2 329,-130 328,-58 -1,37 -185,228 -215,248l-113 -190zm-409 -69c17,57 49,95 73,140l175 -31 173 271c-35,47 -180,181 1,298 63,-56 118,-151 176,-225 63,-79 123,-161 182,-235 62,-77 156,-142 95,-272 -31,-66 -118,-204 -175,-245 -120,59 -25,95 -99,147l-394 91c-94,22 -157,28 -207,60z"/>
   <path class="fil1" d="M7977 1793c-14,82 11,109 54,150l-154 589c58,35 101,36 165,53 21,-117 75,-325 105,-367 32,102 72,207 110,307 40,104 101,217 234,172 10,-24 10,-8 3,-46 0,-1 -22,-58 -24,-61l-145 -343c65,-59 303,-220 340,-294 -165,-59 -172,-55 -284,37 -54,44 -180,156 -233,175 79,-274 124,-355 -96,-376 -3,0 -16,-13 -76,4z"/>
   <path class="fil1" d="M10729 9903c59,32 316,235 348,279l-505 -87c-35,57 -124,152 -138,208 89,78 91,-7 176,31l143 117c58,45 224,199 287,216 35,-25 54,-56 69,-104 -39,-58 -101,-94 -157,-138 -52,-42 -117,-86 -155,-139 233,-7 533,174 590,-70l-37 -15c-47,-22 -9,2 -45,-24l-194 -170c-95,-77 -189,-153 -282,-222 -36,50 -49,78 -101,118z"/>
   <path class="fil1" d="M12082 5048c-24,-44 -49,-84 -70,-138 -246,86 -496,387 -627,193 -144,-214 224,-269 438,-447 1,-95 -50,-200 -123,-220 -133,100 31,92 -134,183 -269,147 -492,233 -315,549 92,164 228,233 419,128 102,-56 344,-179 412,-247z"/>
   <path class="fil1" d="M10066 3591c23,55 57,78 107,107 111,-59 183,-238 271,-257 -24,52 -38,260 -46,341 -15,153 30,221 156,241l35 -496 431 -75c-89,-233 -339,-70 -549,-57 51,-72 221,-212 186,-296 -45,-46 -95,-108 -178,-124 -83,231 95,34 -162,326l-251 289z"/>
   <path class="fil1" d="M2878 5334c85,-222 15,-348 -160,-412 -112,-42 -347,-139 -455,-155 -38,49 -50,80 -51,143 173,117 504,116 541,273 16,65 -28,141 -68,168 -81,54 -300,-45 -397,-83 -199,-77 -252,-44 -268,182 306,23 -92,-124 482,74 206,71 311,-13 377,-188z"/>
   <path class="fil1" d="M3881 2878c-82,1 -101,14 -145,52 -85,74 -65,55 -70,106 143,86 90,-30 188,73 42,44 72,95 114,147 78,96 148,194 238,284 52,-27 81,-58 124,-84 -50,-128 -176,-203 -224,-314 170,32 524,223 592,-3 -49,-37 -414,-118 -467,-128l-21 -443c-54,24 -93,68 -148,101l16 445c-60,-76 -138,-160 -196,-236z"/>
   <path class="fil1" d="M6426 12143c-33,0 -149,4 -172,-3 -85,-27 113,-287 120,-292 47,71 52,187 52,295zm-225 -330c-19,80 -124,266 -168,353 -17,34 -26,52 -41,81 -69,136 -102,122 -19,137 28,5 107,1 140,1 15,-65 29,-48 35,-121l230 30c84,16 41,-16 71,34 56,95 -56,161 202,161l-112 -651c-34,-124 -115,-114 -248,-134 -59,-9 -124,-35 -149,-10 -18,18 -33,95 57,119z"/>
   <path class="fil1" d="M11223 9635c-51,-65 -93,-77 -79,-113 16,-6 4,-5 28,-4l269 74c-15,53 -65,127 -105,157 -51,-34 -72,-62 -112,-114zm-146 44c26,40 55,65 85,104 36,46 55,64 94,114 36,46 62,68 97,112 38,48 72,63 88,122 168,-121 28,-199 -2,-243 20,-86 112,-158 139,-262 43,22 103,31 162,8 58,-23 79,-54 79,-128l-313 -68c-109,-22 -221,-50 -336,-65 -138,-19 -152,103 -201,184 -100,166 -101,138 106,122z"/>
   <path class="fil1" d="M2680 8951c-80,143 -327,227 -396,100 -126,-231 217,-400 368,-245 45,46 70,72 29,145zm155 -52c0,-85 -71,-206 -118,-246 -210,-178 -592,2 -615,271 -6,75 33,177 94,250 134,158 409,88 522,-11 99,-87 117,-101 117,-264z"/>
   <path class="fil1" d="M2279 8119c138,-66 291,-19 257,-202 -14,-75 -42,-138 -111,-74 -36,34 -35,54 -53,71 -35,33 -468,151 -544,154l54 136c73,-1 226,-45 278,-69 19,82 52,180 52,278 -52,4 -243,53 -278,70l47 126c1,-2 3,8 5,12 79,-3 620,-147 676,-174 -1,-63 -14,-96 -34,-138 -194,7 -230,117 -286,8 -19,-36 -27,-132 -63,-198z"/>
   <path class="fil1" d="M6487 1774c-10,32 -12,67 10,96 28,37 37,18 80,55l64 590c8,2 15,-1 17,4 2,5 10,3 13,4 3,0 10,2 13,3l89 -6c281,-32 314,-4 314,-187l-290 42 -22 -168 215 -31 8 -134 -237 17 -22 -165 249 -35 -8 -134 -496 47z"/>
   <path class="fil1" d="M11872 8223c49,10 85,21 134,40 81,32 191,126 56,164 -159,45 -572,-108 -328,-206 46,-19 77,-10 138,2zm-33 -174c-72,0 -102,1 -176,32 -46,19 -58,35 -81,75 -222,384 463,547 617,357 238,-292 -262,-464 -360,-464z"/>
   <path class="fil1" d="M7450 2368l-17 0c-81,0 -139,-47 -208,-63 -21,336 422,209 484,104 61,-104 32,-222 -44,-283 -86,-69 -211,-81 -210,-201 106,-99 164,-11 263,-28l35 -134 -215 -37c-202,-24 -356,205 -208,355 72,73 125,80 192,138 81,71 35,148 -71,149z"/>
   <path class="fil1" d="M9595 3066c-64,126 -27,191 79,261 255,170 483,-11 399,-225 -37,-92 -139,-180 -90,-275 91,-44 194,59 238,104 53,-41 66,-48 95,-104 -40,-68 -177,-168 -299,-177 -148,-10 -247,112 -216,253 22,99 181,254 91,319 -48,35 -122,-9 -162,-38 -91,-69 -50,-88 -135,-118z"/>
   <path class="fil1" d="M6416 2386c-55,-5 -34,6 -92,44 -34,22 -77,44 -126,47 -252,20 -423,-496 58,-500 -2,-138 17,-169 -112,-147 -551,91 -393,768 -46,805 156,17 399,-63 317,-249z"/>
   <path class="fil1" d="M3166 9575c-18,34 -21,34 -27,72l-6 68c-13,21 -396,296 -453,312 7,69 19,58 59,114 27,38 45,63 72,101 72,103 66,114 213,79 -14,-67 -15,-30 -37,-65l-117 -161c37,-33 84,-57 139,-70 42,68 78,122 143,144l64 -73c-16,-62 -72,-123 -104,-173 20,-17 -4,0 30,-22l110 -48c36,56 69,120 120,157 57,-17 57,-27 87,-70 -22,-73 -94,-148 -136,-211 -62,-92 -93,-179 -158,-153z"/>
   <path class="fil1" d="M7138 11102c2,-4 5,-14 5,-12l-6 -352 -52 -538c-142,32 -302,181 -416,208l336 531c50,75 94,104 132,163z"/>
   <path class="fil1" d="M3167 8569c191,-45 386,-193 523,-308 78,-65 203,-155 256,-228 -294,-6 -472,67 -745,69 0,252 -36,384 -34,467z"/>
   <path class="fil1" d="M8957 2797c58,-167 107,-182 234,-277 89,-67 224,-141 291,-214 -131,-209 -342,91 -448,134 -2,-94 12,-152 15,-238 4,-136 -8,-118 -88,-176 -56,-18 0,-10 -65,-11 -18,132 -10,310 -12,448 -4,175 -79,192 -113,329 49,39 78,59 137,72l50 -68z"/>
   <path class="fil1" d="M12015 5360l63 186c-288,137 -566,160 -535,348 14,88 85,142 183,114 -16,-147 -27,-127 138,-191 69,-27 217,-101 285,-108l67 175 131 -39c-6,-76 -171,-482 -213,-534 -57,14 -69,14 -119,49z"/>
   <path class="fil1" d="M11492 8933c-1,-97 22,-171 69,-225 79,2 87,17 127,64 32,39 44,79 68,123 49,92 85,186 135,264l103 0c43,-167 141,-290 122,-396 -8,-42 -1,-30 -31,-57l-55 -31c-18,28 -13,20 -28,58 -26,68 -35,144 -77,201 -103,-185 -122,-389 -346,-383 -206,5 -230,307 -226,331 14,76 51,52 139,52z"/>
   <path class="fil1" d="M8227 12122c-82,132 -63,81 -49,247 95,-1 179,-33 260,-52 92,-22 173,-22 173,-139 0,-78 -48,-36 -101,-16 -43,16 -99,32 -159,34 34,-149 219,-304 98,-479 -150,-216 -318,-32 -427,-6 11,85 28,58 35,139 116,-27 84,-87 226,-87 64,123 85,135 -55,361z"/>
   <path class="fil1" d="M3166 9575c-8,-265 -288,-477 -598,-251 -274,200 -85,655 146,512 -24,-91 -257,-185 -86,-348l19 -16c60,-47 188,-117 277,-73 67,33 84,111 121,196l121 -20z"/>
   <path class="fil1" d="M11717 7199l-26 451c82,0 97,-19 147,-52l35 -260c232,114 285,225 503,225 29,-48 45,-47 52,-121 -4,-2 -10,-9 -12,-5 -3,5 -15,-6 -24,-10 -197,-78 -675,-387 -675,-227z"/>
   <path class="fil1" d="M1902 5847c269,44 -54,-110 404,25 62,18 176,40 197,85 35,74 -45,143 -69,183 190,136 357,-245 121,-362 -80,-40 -508,-176 -571,-142 -60,39 -63,126 -83,211z"/>
   <path class="fil1" d="M9947 11622c1,-98 0,-93 -36,-156 -57,47 -134,131 -225,140l-138 -260c-141,-244 -165,-243 -273,-153 -41,34 -34,21 -73,48 82,122 84,26 159,100 40,39 225,407 291,455 80,-20 212,-130 294,-174z"/>
   <path class="fil1" d="M6930 12195c-1,320 -259,-19 -215,176 18,79 58,117 146,119 171,0 196,-77 219,-232 21,-144 7,-313 6,-461 -137,-91 -297,-70 -192,69 3,4 14,14 17,19 38,58 19,217 19,311z"/>
   <path class="fil1" d="M2316 7355c-115,0 -289,30 -384,19 -190,-21 55,-229 -90,-202 -134,25 -150,223 -47,321 85,81 583,20 658,-18l1 -138c0,-160 -105,-45 -138,17z"/>
   <path class="fil1" d="M8959 12143l0 -70 -33 -71c-12,-33 -14,-42 -26,-79l-167 -458c-82,7 -254,186 -260,260 107,72 111,36 191,-17 25,106 87,240 124,345l50 124c73,-6 57,-20 121,-35z"/>
   <path class="fil1" d="M11769 8013c102,-7 104,-57 86,-138 173,0 312,68 486,69 74,-159 17,-146 -17,-155 -75,-21 -591,-71 -660,-103 0,74 14,118 35,172l69 155z"/>
   <path class="fil1" d="M1795 7892c135,0 607,-52 694,-121 -2,-83 10,-149 -18,-208 -11,-11 -107,-24 -121,105 -198,1 -364,69 -568,69l13 156z"/>
   <path class="fil0" d="M2680 8951c41,-73 16,-99 -29,-145 -150,-155 -493,14 -368,245 69,127 316,43 396,-100z"/>
   <path class="fil0" d="M10225 10650c43,69 105,109 156,175 45,59 95,115 157,157 139,-94 145,-226 23,-353 -157,-165 -256,-35 -336,22z"/>
   <path class="fil0" d="M11734 8221c-244,98 168,252 328,206 135,-38 26,-133 -56,-164 -49,-19 -86,-31 -134,-40 -61,-12 -91,-21 -138,-2z"/>
   <path class="fil1" d="M5991 1698c-101,-59 -70,-55 -206,-19 45,82 302,314 370,-101 -143,34 -122,3 -164,120z"/>
   <path class="fil0" d="M11045 4163l113 190c30,-20 215,-211 215,-248 1,-72 -325,56 -328,58z"/>
   <path class="fil1" d="M5299 2586l56 -17c-7,-58 -10,-83 -42,-120 -80,-3 -226,54 -297,77l28 118c65,16 190,-40 255,-58z"/>
   <path class="fil0" d="M3495 3777l151 -162c-40,-26 -280,-158 -309,-129 -30,30 36,106 62,148 35,59 50,105 96,143z"/>
   <path class="fil1" d="M3253 9298c29,-69 -2,-136 -53,-173l-23 45c-9,18 -15,32 -22,47 -24,48 -30,47 -39,98 25,122 200,103 258,104 -17,-68 -41,-114 -120,-121z"/>
   <path class="fil2" d="M6426 12143c0,-108 -5,-224 -52,-295 -7,5 -206,265 -120,292 23,7 139,3 172,3z"/>
   <path class="fil0" d="M11144 9522c-13,36 29,48 79,113 41,52 62,80 112,114 40,-30 90,-104 105,-157l-269 -74c-24,-1 -12,-3 -28,4z"/>
   <path class="fil1" d="M9180 2088c127,47 90,73 300,-38 -68,-78 -141,-117 -232,-46l-68 83z"/>
   <path class="fil1" d="M3183 3102c-98,65 -137,120 -79,237l50 62c37,-52 78,-67 75,-132l-46 -167z"/>
   <path class="fil1" d="M9047 12004c26,22 43,48 87,50 39,2 72,-21 88,-50 64,-114 -176,-243 -174,0z"/>
   <path class="fil1" d="M4468 10859c46,39 60,73 134,68 60,-4 113,-33 141,-69 -30,-41 -75,-62 -121,-86 -54,36 -98,55 -154,86z"/>
   <path class="fil2" d="M5698 11865c115,-2 86,-21 87,-139 -71,-16 -71,-18 -122,-52 -7,73 -36,121 -52,191l87 0z"/>
   <path class="fil5" d="M6089 8588c90,-14 158,-123 222,-187 42,-42 55,-33 28,-62 -62,27 -221,190 -250,249z"/>
   <path class="fil6" d="M6152 7383c3,-4 5,-15 4,-13 0,1 46,-10 -106,-127 0,0 -12,-25 -51,-12l152 152z"/>
  </g>
 </g>
</svg>
