<?xml version="1.0" encoding="UTF-8"?>
<!DOCTYPE svg PUBLIC "-//W3C//DTD SVG 1.1//EN" "http://www.w3.org/Graphics/SVG/1.1/DTD/svg11.dtd">
<!-- Creator: CorelDRAW X6 -->
<svg xmlns="http://www.w3.org/2000/svg" xml:space="preserve" width="106mm" height="86.0001mm" version="1.1" style="shape-rendering:geometricPrecision; text-rendering:geometricPrecision; image-rendering:optimizeQuality; fill-rule:evenodd; clip-rule:evenodd"
viewBox="0 0 4023 3264"
 xmlns:xlink="http://www.w3.org/1999/xlink">
 <defs>
  <style type="text/css">
   <![CDATA[
    .str0 {stroke:#2B2A29;stroke-width:7.5899}
    .fil4 {fill:none;fill-rule:nonzero}
    .fil5 {fill:black}
    .fil0 {fill:#030303}
    .fil1 {fill:#181818}
    .fil3 {fill:#540002}
    .fil2 {fill:#1F1B20;fill-rule:nonzero}
   ]]>
  </style>
   <clipPath id="id0">
    <rect width="4023" height="3264"/>
   </clipPath>
 </defs>
 <g id="Vrstva_x0020_1">
  <metadata id="CorelCorpID_0Corel-Layer"/>
  <g style="clip-path:url(#id0)">
   <image id="Bez_x0020_názvu-1.jpg" transform="matrix(0.391241 0 0 0.388803 -2073.58 1788.49)" x="5300" y="-4600" width="10282" height="8394" xlink:href="samolepka_Images\samolepka_ImgID1.png"/>
  </g>
  <g id="_494473832">
   <path class="fil0" d="M3647 524l3 5 2 -5c1,0 1,-1 2,-1 1,1 0,-3 11,-5 -1,-10 -4,-10 -1,-17 3,-7 6,-8 12,-13 3,6 5,4 3,9 9,-3 8,-8 17,-18l20 -22c0,0 1,-1 1,-1 3,3 3,2 5,4 4,4 -1,-3 3,5 -3,5 -2,3 -5,6 -3,3 -4,3 -6,6 -4,4 -2,4 -5,7 -3,4 -2,3 -6,6 -20,16 2,7 -24,20 3,11 9,18 2,29 -4,5 -5,6 -13,7 -8,2 -13,0 -19,-1 -8,12 -2,15 -19,16 1,24 -3,25 -3,39l14 -11c17,-13 14,-7 40,-11 12,-2 7,-5 19,-8 -3,5 -2,2 -6,6 -8,8 -20,9 -31,12 -21,6 -7,20 -33,21l0 5c36,-2 49,-8 80,5l8 4c19,11 39,-5 59,2 5,2 4,2 8,4 -10,1 -25,-2 -32,7 0,0 0,1 -1,1l-1 2c0,0 0,1 0,1 -2,0 -5,0 -7,1 -15,3 7,-2 -4,1 -1,0 -1,0 -2,1 -6,2 -3,5 -15,4l-29 -5c-15,-1 -26,7 -40,12 -7,3 -7,2 -16,2l69 32c-27,2 -5,4 -31,-7l-11 -4c-10,-3 -17,-3 -29,-2 2,15 3,3 15,14 0,0 1,1 1,1 0,0 1,1 1,1 7,7 14,12 18,21 5,11 9,25 15,34 8,11 22,13 30,23 4,5 3,9 7,15l-7 0c-7,-1 -7,-7 -11,-13 -13,1 -21,1 -31,-7 0,0 -1,-1 -1,-1l-18 -21c-3,-4 -6,-7 -9,-10 -2,-1 -3,-3 -5,-5 -8,-6 -15,-8 -25,-11 -1,0 -1,0 -2,-1l-13 -1 5 8c16,15 8,23 14,41 3,11 6,5 8,17 -12,-12 -14,-14 -19,-33 -3,-12 -7,-15 -17,-22l-9 -5c1,16 6,17 4,37 -4,29 -21,42 -15,69 3,13 2,27 -6,37 1,-32 4,-10 -9,-38 -4,-8 6,-7 -11,-6 4,-10 3,-11 4,-24 1,-13 7,-32 0,-47 -6,-11 -10,-4 -12,-30l-5 0c-3,17 0,26 -9,40l-15 21c-1,2 -1,3 -2,5 -2,5 -1,2 -2,5 0,-7 -1,-16 1,-22 0,0 1,-1 1,-1 0,0 1,-1 1,-1 0,0 1,-1 1,-1l7 -12c4,-8 3,-3 3,-13 -9,3 -10,10 -17,15 -1,0 -3,1 -3,2 -1,0 -1,1 -2,1 -5,2 2,-1 -3,2 -18,7 -24,-1 -38,-1 -2,10 0,7 -7,10l-8 -14c1,12 1,9 3,17 4,11 0,3 1,17 -40,3 -15,12 -41,19 5,9 4,17 -4,24l-17 13c-3,3 -1,2 -3,4 -5,7 -10,8 -18,11 -6,3 -5,3 -11,4 3,-17 19,-38 28,-48 0,0 1,-1 1,-1 6,-6 6,-2 7,-13 8,0 9,1 15,4 2,-7 0,-2 2,-7 4,-8 11,-13 17,-20 11,-12 5,-21 5,-37 13,-2 5,2 7,-5 5,0 13,-1 17,-1 20,1 -5,0 10,4l9 -19c4,-4 1,-3 7,-6 3,8 3,8 4,19 5,-9 0,-21 0,-32 1,-16 5,-17 1,-31 -4,7 2,10 -4,17 -3,3 1,0 -4,3l-4 3c-17,11 -39,14 -57,19 5,-8 7,-6 9,-15l25 -1c3,-9 7,-4 16,-14 5,-6 11,-8 15,-15 -22,1 -43,8 -66,0l-21 -10c-1,0 -1,0 -2,-1 -1,0 -1,0 -2,-1l-39 1c-11,0 -9,-2 -20,-1l0 -5c12,-1 15,2 24,-2 10,-5 16,-11 28,-13 7,-1 17,-2 24,0l4 1c13,4 23,3 36,-3 2,-1 3,-1 5,-2 9,-4 19,-5 24,-13 -10,-4 -15,0 -25,-3l-13 -6c-7,-4 0,1 -6,-6 -5,-5 2,-1 -6,-6l-14 -5c0,0 -1,-1 -2,-1 0,0 -1,0 -2,-1 23,-1 20,4 36,9 1,0 1,0 2,1l8 2c5,0 16,-1 22,-1 -4,-11 -10,-8 -16,-15l-9 -11c-12,-12 -8,-13 -18,-32l-13 -20c-6,-6 -2,-2 -8,-5l-8 -5c-1,0 -3,-2 -4,-3l-9 -13c-3,-4 -4,-2 -6,-6 7,0 3,0 8,1 0,0 7,3 8,4l18 12c12,2 0,-4 12,2 8,4 22,14 26,20 1,1 1,3 3,6 8,12 19,22 35,23l18 11c-1,-13 -4,-12 -9,-20 0,0 -1,-1 -1,-2 -7,-12 -6,-16 -7,-28 -1,-13 -3,-9 -6,-19 22,13 8,40 38,50 0,0 1,0 2,1 0,-1 1,-2 1,-2 1,4 -4,-30 8,-62 4,-12 11,-13 9,-29 -1,-10 -6,-25 -7,-36 8,-2 6,-5 9,-10 2,42 2,22 10,37 11,22 1,52 2,58 0,1 6,16 6,17 3,10 8,31 15,35l8 -38c4,-7 7,-8 11,-13l9 -17c2,5 4,7 2,13l-13 21c-5,7 -5,0 -4,15 17,-5 2,-12 20,-19 10,-4 26,-3 38,-4z"/>
   <path class="fil1" d="M3739 447l-3 7c-5,-7 -3,-5 -14,-6l0 15c11,-4 4,-3 15,-7 0,11 -1,10 -13,10 -4,-7 1,-1 -3,-5 -2,-2 -2,-1 -5,-4 0,-9 2,-8 6,-15l15 -1 3 5z"/>
   <path class="fil0" d="M3737 456c-10,3 -3,3 -15,7l0 -15c11,1 9,-1 14,6l3 -7c0,1 0,4 0,4 -1,4 -1,3 -2,5z"/>
   <polygon class="fil0" points="3465,722 3460,722 3459,712 3464,712 "/>
   <polygon class="fil0" points="3463,775 3458,775 3457,766 3462,765 "/>
   <path class="fil0" d="M3400 798c-7,-1 -4,1 -8,-4l7 0 0 5z"/>
   <polygon class="fil1" points="3652,523 3647,524 3647,519 3652,519 "/>
   <path class="fil0" d="M3388 854c0,3 -5,6 -4,0 1,-6 -6,0 1,-1 3,0 2,-4 3,1z"/>
   <path class="fil0" d="M3416 828c0,3 -5,6 -4,0 1,-6 -6,0 1,-1 3,0 2,-4 3,1z"/>
   <path class="fil0" d="M3688 543c0,3 -5,6 -4,0 1,-6 -6,0 1,-1 3,0 2,-4 3,1z"/>
   <path class="fil1" d="M3523 784c0,3 -5,6 -4,0 1,-6 -6,0 1,-1 3,0 2,-4 3,1z"/>
   <path class="fil0" d="M3705 504c0,6 -4,1 -2,0 0,0 1,-7 2,0z"/>
   <polygon class="fil1" points="3488,564 3488,562 3491,563 "/>
   <polygon class="fil0" points="3480,502 3477,502 3479,499 "/>
   <path class="fil0" d="M3721 483l-1 0c0,0 0,0 0,0l1 0z"/>
   <path class="fil0" d="M3606 495l-1 -1c0,0 1,0 1,1z"/>
   <polygon class="fil0" points="3482,506 3480,502 "/>
  </g>
  <path class="fil2" d="M1457 1745c1,-8 5,-15 13,-21 4,-3 8,-5 12,-7l-85 0c4,1 8,4 12,7 8,6 12,13 13,21l0 96 -163 0 0 -96c1,-8 5,-15 13,-21 4,-3 8,-5 12,-7l-85 0c4,1 8,4 12,7 8,6 13,13 13,21l0 242c-1,8 -5,15 -13,21 -4,3 -8,5 -12,7l85 0c-4,-1 -8,-4 -12,-7 -8,-6 -12,-13 -13,-21l0 -125 163 0 0 125c-1,8 -5,15 -13,21 -4,3 -8,5 -12,7l85 0c-4,-1 -8,-4 -12,-7 -8,-6 -13,-13 -13,-21l0 -242z"/>
  <path id="1" class="fil2" d="M1543 1867c1,-62 1,-101 1,-116 0,-11 2,-17 7,-19 2,-1 10,-1 24,-1 14,0 27,6 38,18 14,15 21,35 21,60 0,23 -7,40 -20,50 -7,5 -13,8 -20,8l-50 0zm114 52c-13,-19 -24,-33 -34,-42 20,-18 34,-38 41,-59 4,-11 5,-20 4,-27 0,-38 -21,-62 -62,-70 -21,-4 -42,-5 -62,-1l-59 0c4,1 8,4 12,7 8,6 12,13 13,21l0 240c-1,8 -5,15 -13,21 -4,3 -8,5 -12,6l84 0c-4,-1 -8,-3 -12,-6 -8,-6 -12,-13 -13,-21l0 -99c25,0 47,7 65,21 9,7 15,14 19,20 9,14 19,29 31,43 24,28 44,43 61,43 17,0 29,-2 37,-6 4,-2 7,-4 8,-6 -19,4 -39,-5 -62,-27 -13,-12 -27,-31 -44,-55z"/>
  <path id="2" class="fil2" d="M1864 1884l37 -100 36 100 -73 0zm186 131c-4,-1 -8,-3 -13,-5 -9,-5 -16,-12 -21,-20 -7,-13 -45,-104 -114,-272l-102 269c-1,4 -4,8 -8,12 -7,8 -17,13 -30,15l87 0c-4,-1 -8,-2 -11,-4 -8,-4 -11,-9 -11,-15l31 -94 82 0 38 98c-11,3 -18,8 -23,14l94 0z"/>
  <path class="fil2" d="M909 1081c1,-14 9,-27 23,-37 7,-5 15,-9 22,-12l-151 0c7,2 14,6 21,12 15,10 22,23 23,37l0 431c-1,14 -9,27 -23,37 -7,5 -14,9 -21,12l151 0c-7,-2 -14,-6 -22,-12 -14,-10 -22,-23 -23,-37l0 -431z"/>
  <path id="1" class="fil2" d="M1327 1033c7,2 15,6 22,12 15,10 22,23 24,37l-154 357 -154 -357c1,-14 9,-27 24,-37 7,-5 14,-9 22,-12l-153 0c6,1 12,4 18,9 13,9 20,21 23,37l219 482 0 -5 2 5 221 -482c3,-16 10,-28 23,-37 6,-4 12,-7 18,-9l-153 0z"/>
  <path id="2" class="fil2" d="M1558 1568c23,0 41,-16 41,-40 0,-26 -19,-43 -41,-43 -31,0 -43,25 -43,41 0,25 19,42 44,42z"/>
  <path class="fil2" d="M1585 2243c14,4 26,12 35,23 13,15 19,36 19,62 0,26 -6,46 -19,60 -9,10 -20,16 -35,19l0 -164zm-87 81c0,-25 6,-45 19,-60 9,-10 20,-17 34,-21l0 162c-14,-4 -25,-11 -34,-22 -12,-15 -19,-35 -19,-60zm74 -83c2,0 5,1 7,1l0 166c-3,0 -5,1 -7,1l0 -168zm-9 167c-2,0 -4,-1 -6,-1l0 -165c2,0 4,-1 6,-1l0 167zm9 -178c-16,-1 -32,2 -48,10 -32,15 -48,44 -48,87 0,30 11,54 34,71 18,13 39,20 62,20 21,0 41,-8 59,-23 21,-18 31,-40 31,-67 0,-28 -10,-51 -30,-71 -18,-18 -39,-26 -60,-26z"/>
  <path id="1" class="fil2" d="M1955 2102l-227 0 -12 -6 12 59c0,-6 2,-12 5,-17 6,-12 16,-18 29,-18l61 0 0 4c0,61 0,116 0,166l0 98c-1,9 -6,16 -14,23 -4,3 -9,6 -13,7l92 0c-4,-1 -9,-4 -13,-7 -9,-6 -14,-14 -14,-23l0 -98c0,-50 0,-106 0,-166l0 -4 61 0c13,0 22,6 28,18 3,6 5,12 5,17l12 -59 -12 6z"/>
  <path id="2" class="fil2" d="M2033 2258c1,-67 1,-109 1,-126 0,-11 2,-18 7,-20 2,-1 10,-1 26,-1 15,0 29,6 41,19 15,16 22,38 22,65 0,25 -7,43 -22,54 -7,5 -15,8 -22,9l-54 0zm123 56c-14,-21 -26,-36 -37,-46 22,-20 37,-41 44,-64 4,-12 5,-21 5,-29 0,-41 -23,-67 -68,-76 -22,-5 -45,-5 -67,-1l-64 0c4,1 9,4 13,7 9,6 13,14 14,22l0 260c-1,9 -5,16 -14,23 -4,3 -9,5 -13,7l91 0c-4,-1 -9,-4 -13,-7 -9,-6 -13,-14 -14,-23l0 -108c28,0 51,7 70,22 10,7 16,15 21,22 9,15 20,31 33,46 26,31 48,46 66,46 18,0 31,-2 40,-7 5,-2 7,-5 8,-7 -20,4 -43,-6 -67,-30 -14,-13 -30,-33 -48,-60z"/>
  <path id="3" class="fil2" d="M2502 2096c4,1 8,3 13,6 8,7 12,16 12,29l0 136c0,45 -7,78 -21,100 -11,17 -26,28 -47,32l-9 2c-3,1 -7,1 -12,1l-15 -1c-3,0 -7,-1 -10,-2l-9 -2c-44,-13 -66,-58 -66,-136l0 -39 0 -97c1,-9 5,-16 14,-22 4,-3 9,-5 13,-7l-91 0c3,1 7,2 11,5 7,5 12,13 13,22l0 142c0,52 16,91 47,118 25,22 56,33 93,33 34,0 63,-13 88,-38 28,-28 41,-66 41,-112l0 -142c1,-8 5,-16 14,-22 4,-3 9,-5 13,-7l-91 0z"/>
  <path id="4" class="fil2" d="M2828 2096c4,1 9,4 13,7 9,6 14,14 14,23l0 216 -234 -245 0 292c-1,9 -5,16 -14,23 -4,3 -9,6 -13,7l92 0c-4,-1 -9,-4 -13,-7 -9,-6 -14,-14 -14,-23l0 -213 234 242 0 0 0 0 0 -292c1,-9 5,-16 14,-23 4,-3 9,-6 13,-7l-92 0z"/>
  <path id="5" class="fil2" d="M3087 2096c4,1 9,4 13,7 9,6 14,14 14,23l-64 108 -64 -108c1,-9 6,-16 14,-23 4,-3 9,-6 13,-7l-93 0c3,1 7,3 11,5 8,5 12,13 14,23l86 138 0 126c-1,9 -5,16 -14,23 -4,3 -9,6 -13,7l92 0c-4,-1 -9,-4 -13,-7 -9,-6 -14,-14 -14,-23l0 -127 86 -137c2,-10 6,-17 14,-23 4,-3 7,-4 11,-5l-93 0z"/>
  <path class="fil2" d="M2393 2079c0,-5 1,-11 4,-16 3,-5 6,-9 11,-12 5,-3 10,-4 16,-4 9,0 17,3 23,9 6,6 9,14 9,23 0,9 -3,17 -9,23 -6,6 -14,9 -23,9 -6,0 -11,-1 -16,-4 -5,-3 -9,-6 -12,-11 -3,-5 -4,-11 -4,-18zm17 1c0,6 1,11 4,14 3,3 6,5 11,5 4,0 8,-2 11,-5 3,-3 4,-8 4,-14 0,-6 -1,-11 -4,-14 -3,-3 -6,-5 -11,-5 -4,0 -8,2 -11,5 -3,3 -4,8 -4,14z"/>
  <g id="_494234768">
   <path class="fil3" d="M2512 2394c0,-9 6,-1 2,0 0,0 -2,10 -2,0zm-52 0l1 1c0,0 -1,-1 -1,-1zm30 -7l-7 4 7 -4zm-26 -7l1 1c0,0 -1,-1 -1,-1zm22 -4l0 0zm0 0l7 -4c-3,11 2,8 -7,4zm-19 -41l-2 8 2 -8zm-356 -845c-8,-10 -14,-31 -20,-43 -6,-14 -16,-33 -17,-49 55,0 38,35 36,62 -1,15 1,12 1,31zm-167 -115l0 0zm-44 -41l-2 8 2 -8zm44 -93l31 1c1,0 2,0 3,0 23,1 13,13 17,28 2,9 8,7 23,42 4,9 5,15 8,25l21 45c-30,15 -69,-2 -91,-3 -9,0 1,2 -3,-1 0,0 2,-4 -10,-7l0 4c-12,-3 -27,-14 -33,-22l0 -4c-3,-13 -1,-8 -11,-15 -11,-17 -19,-30 -27,-51 -6,-15 -5,-13 -4,-27 1,-16 1,-25 4,-37 10,-33 35,-80 71,-88 2,10 5,15 8,25l29 75c-18,-8 -26,2 -37,11zm-63 -100l0 0zm130 -19l0 -11c99,0 174,117 110,217 -7,12 -4,9 -14,12 -5,17 -31,33 -48,33 -1,-11 -2,-11 -5,-21 -4,-17 2,-4 -7,-16l-11 -41c-8,-14 -18,-31 -19,-52l7 0 0 -7 0 -4c-7,-11 -12,-12 -19,-26 -6,-11 -1,-7 -8,-13l-12 -10c-9,-10 -9,-12 -15,-26 -5,-14 -11,-21 -13,-35 28,-15 36,-11 52,0zm-111 -81l7 0c5,22 21,43 22,63 -15,-4 -34,-11 -36,-27 -2,-21 6,6 6,-36zm-107 -122c24,23 1,42 6,62 4,16 30,16 46,34 26,28 -17,84 24,116 8,7 4,1 12,10 -6,5 -19,20 -23,22 -11,7 -24,3 -32,-4 -8,-8 -11,-39 -27,-54 -17,-17 -46,-10 -71,-5 -36,7 -33,-6 -47,-33l-37 4c37,0 31,18 39,38 8,21 13,10 15,15 3,8 45,-11 64,14 30,42 22,77 78,77l0 30c-4,2 -32,26 -44,11 -19,-24 -50,-43 -80,-20l-37 30c-22,9 -29,-8 -49,-13 1,14 4,15 14,23 20,15 24,26 46,11 8,-6 29,-22 44,-16 16,6 58,36 62,38 24,12 35,-3 52,-8 1,16 12,29 3,43 -15,23 -39,4 -73,9 -51,8 -31,76 -65,83 -18,3 -40,-14 -43,24 8,-6 5,-1 7,-11 27,0 37,4 63,4 26,-48 19,-52 67,-52 42,0 72,12 81,-29 10,7 18,12 30,19l0 33c-13,9 -3,6 -22,12 -11,4 -2,0 -11,4 -34,15 -43,23 -37,65 2,15 3,28 3,49 -9,6 -23,16 -33,19l0 30c1,-1 1,-3 1,-2 0,1 1,-2 1,-2 7,-14 4,-13 15,-19 9,-5 26,-7 33,-11 21,-13 -4,-42 14,-67 13,-18 67,-31 80,-53 9,-16 5,-17 4,-33 35,3 48,6 48,44 0,0 -25,18 -33,41 -7,22 3,36 15,51 9,11 30,26 25,47 -4,18 -30,29 1,49 -10,-44 39,-42 22,-74 -24,-46 -32,-26 -4,-78 9,-16 24,-32 26,-52l68 151c11,23 4,21 2,24 4,12 -1,0 4,4l29 59c-11,-3 -11,-8 -12,-10 0,-1 -1,-2 -1,-2 -6,-11 -8,-14 -9,-28 -10,10 -6,5 -19,11l31 43c28,29 19,11 39,61 8,19 17,41 25,60l78 185c9,20 15,40 25,60 12,27 23,42 1,58 5,13 5,0 7,19 -9,-6 -4,-4 -15,-7 0,31 0,26 30,26 -5,14 -6,4 -4,11 19,2 12,7 33,7l4 15 35 79c4,21 -8,0 9,21 9,12 11,22 17,36 6,13 7,13 14,16l0 15c-18,-4 -6,-3 -11,0 0,25 1,20 -8,37l0 26c11,-3 15,-9 22,-15l11 7 4 -7 0 -7c11,3 6,2 15,7 8,-24 -1,13 7,-11 -5,-3 -4,-2 -11,-4 5,-4 -8,-4 11,-4 10,15 8,14 13,35 4,19 6,20 6,42 21,-32 7,-10 4,-52 8,9 5,5 8,18l5 17c0,1 1,2 1,2 0,-29 -14,-63 -19,-81 -36,0 -35,-18 -52,-30 -12,-23 -6,-20 -25,-53l-46 -103c-6,-20 9,-14 -1,-32 -11,-19 -13,-1 -15,-22 -3,-31 -19,-29 -30,-56l-91 -220c-2,-9 -2,-2 0,-8 2,-1 1,6 15,9 15,2 16,3 29,10 18,-13 -3,-12 19,-7 -5,-10 -6,-22 -11,-33 13,5 -1,5 15,11l8 -11c-14,-7 -20,0 -23,-10 -3,-9 -3,0 9,-7 12,-6 5,5 3,-2 3,-5 2,-4 4,-11l-20 -3c0,0 -1,0 -2,0 -2,-10 -3,-25 -6,-35 -6,-19 -11,-22 -20,-25 -4,9 0,9 0,26l-15 -11c3,10 6,13 11,22 -15,0 -16,-2 -26,-7 0,15 1,9 -4,19 11,3 6,2 15,7l-11 22c18,7 -3,1 15,7l-15 12c-9,-23 5,4 0,-11 -3,-9 -15,-10 -12,-24 1,-5 4,3 5,-17 -19,14 9,4 -11,11 -1,-13 -6,-16 -12,-29l-36 -93c18,4 8,7 11,-4 -8,-15 -5,-15 -22,-11 -3,-33 -38,-88 -46,-120 -8,-33 -11,-9 -13,-35 48,32 38,18 81,41l0 41c9,6 12,10 26,11 -24,-35 -7,-12 -7,-67 -42,-28 -52,-19 -52,-67 0,-17 3,-43 -1,-58 -1,-3 -10,-17 -11,-19 -7,-7 -11,-7 -21,-9l19 -26c14,-9 39,-5 45,12 5,12 -2,-1 3,14 16,48 43,48 85,37 38,-10 38,8 52,33l26 0c-12,-17 -14,2 -24,-24 -11,-30 1,-8 -17,-35 -24,0 -30,5 -51,-1 -13,-3 -10,-2 -17,-13 -5,-8 -8,-13 -12,-21 -28,-47 -15,-54 -72,-54l8 -29c15,-22 33,-21 49,-6 6,6 0,1 7,7 26,22 46,22 68,5 28,-22 38,-39 58,-28 21,11 6,10 38,10l7 -11c-18,2 -14,7 -29,-4 -4,-3 -22,-19 -25,-20 -42,-17 -23,59 -120,-9 -37,-25 -54,-3 -67,0 -1,-4 -19,-45 14,-57 13,-5 9,-1 24,2 8,2 -3,0 7,1 27,3 47,3 57,-21 5,-12 8,-21 12,-32 13,-34 15,-30 59,-30 3,-11 5,-11 7,-22 -13,9 -7,13 -28,11 -53,-6 -28,-20 -72,45 -18,0 -22,2 -34,3 -16,2 -22,-3 -37,-4 -16,-1 -25,2 -33,7 -11,7 -14,9 -15,26 -29,-2 -38,-37 -30,-52 8,-16 16,-11 25,-13 10,-3 6,-2 14,-7 9,-5 22,-11 28,-21 9,-15 2,-40 -1,-59 -7,-43 5,-33 34,-52l0 -26c-9,11 -7,17 -21,24 -14,7 -21,3 -32,12 -19,16 6,44 -14,67 -31,34 -96,23 -81,90 -43,-4 -61,-32 -42,-53 71,-82 -17,-90 -17,-128 7,-25 15,-8 15,-48l-11 -7c9,38 -17,27 -25,54 -8,29 24,30 21,65 -1,14 -24,44 -32,57 -6,9 -11,22 -11,32 0,14 9,18 13,30 -18,-1 -12,-2 -32,-51 -7,-18 -8,-12 2,-16 -2,-19 -7,6 -21,-31 -5,-14 -15,-30 -16,-43l23 -4c13,-10 -4,-12 18,-14l-6 -5c-5,-5 -2,-1 -5,-6 11,-14 6,0 11,-15l-14 -12c-10,15 -8,9 -4,27 -13,0 -18,-1 -29,-2 -7,-1 -5,5 -9,-3 -5,-10 4,-7 -4,-21l-8 -11c-6,-9 -8,-16 -12,-25 22,-12 8,0 21,-27 0,-1 1,-2 1,-2 0,-1 1,-2 1,-2 0,-1 1,-2 1,-2 4,-7 1,0 4,-7 -5,-2 1,-1 -5,-1 0,0 -8,1 -9,1l0 -11c-7,-2 -6,-1 -11,-4 4,-15 7,-10 7,-30 -18,-5 -2,-7 -26,-7 -4,9 -3,3 0,15 -29,-8 17,-22 -22,-7l-34 -88c-1,-1 -7,-15 -7,-15 -3,-3 1,-5 -18,-5 7,31 37,84 44,115 -16,4 -15,7 -15,26 18,6 -4,-3 15,11 1,0 2,1 2,2l7 4c13,8 14,7 16,16 3,20 -25,48 19,38l4 22c-23,1 -32,13 -23,33 6,3 35,7 44,7 1,18 14,36 19,56 -15,-4 -22,-10 -37,-11l0 -7c53,-1 -18,-57 -4,4 -62,-14 0,-62 -52,-63z"/>
   <path class="fil3" d="M2327 2354c0,17 36,18 48,15 1,17 0,15 30,15 13,0 5,-7 22,-11 -5,-18 -18,-16 4,-19l0 -11c-10,-3 -4,1 -7,-7 -17,9 -16,3 -11,22 -24,-1 -12,-6 -37,0 -2,-8 -2,-7 -1,-11l5 -12c-19,0 -52,-12 -52,19z"/>
   <path class="fil3" d="M1942 994c0,-11 12,0 4,1 -4,0 -4,7 -4,-1zm-26 0l0 11c36,1 44,18 44,-37 -15,1 -44,6 -44,26z"/>
   <path class="fil3" d="M2360 1991c0,-5 8,-8 5,0 0,0 0,1 0,1 -7,2 -5,6 -5,-1zm-11 4c14,7 11,7 30,7 5,-9 13,-19 0,-33 -5,-5 -8,-5 -18,-8 -6,12 -8,18 -11,33z"/>
   <path class="fil3" d="M1820 746l0 7c4,2 15,6 19,6l13 -8c0,0 1,-1 2,-2 -2,-10 -3,-11 -7,-19 -10,0 -26,-2 -26,15z"/>
   <path class="fil3" d="M2290 2120c6,27 13,18 26,15l0 -22c-12,0 -17,-1 -26,7z"/>
   <path class="fil3" d="M2346 2394l0 11 22 0 0 -19c-10,-2 -7,-4 -15,-4 -5,0 -7,5 -7,11z"/>
   <path class="fil3" d="M2538 2476c2,4 2,0 3,8 1,4 0,10 0,15 5,8 2,-9 4,11 0,4 0,14 0,19l4 0c0,-23 -1,-49 -7,-71l-4 -11 0 30z"/>
   <path class="fil3" d="M2038 1265c3,5 4,6 4,15l4 0c0,-19 -1,-8 7,-11 -7,-14 -4,-43 -4,-63l-4 0 0 59 -7 0z"/>
   <path class="fil3" d="M1890 898c17,-1 6,4 15,-7 -8,-11 2,-6 -15,-7l0 15z"/>
   <path class="fil3" d="M2064 1354c8,2 9,3 19,4l-4 -15 -6 5c-3,1 -1,-4 -8,6z"/>
   <polygon class="fil3" points="2542,2498 2538,2498 2538,2535 2542,2535 "/>
   <path class="fil3" d="M2553 2557l0 -26c-1,1 -1,1 -2,2 0,1 -2,1 -2,2 -3,2 -2,2 -7,4l11 19z"/>
   <path class="fil3" d="M2053 1317c-3,-12 -5,-12 -15,-19 3,15 2,15 15,19z"/>
   <path class="fil3" d="M2083 1542c7,-4 8,3 11,-7l-15 -4c0,20 0,6 4,12z"/>
   <path class="fil3" d="M2109 1620c3,5 2,4 4,11l11 -7 -4 -7c-5,3 -4,2 -11,4z"/>
   <path class="fil3" d="M2023 1135c0,0 -5,-5 -6,-6 -1,-1 -5,-5 -6,-6l0 19c16,-6 -6,6 5,-2 2,-2 5,-4 6,-5z"/>
   <path class="fil3" d="M1916 839l11 0 0 -11c-8,2 -11,1 -11,11z"/>
   <path class="fil3" d="M2264 1743l-10 -12 -1 19c1,-1 1,-3 2,-2 0,1 2,-1 2,-2 3,-2 2,-2 7,-4z"/>
   <path class="fil3" d="M2120 1587c-3,-12 -5,-12 -15,-19 3,12 5,12 15,19z"/>
   <path class="fil3" d="M2160 1565l0 -7 -15 0c8,11 -2,6 15,7z"/>
   <path class="fil3" d="M2160 1783l0 -15c-10,-3 -3,0 -11,-4l8 15c0,1 1,2 2,2 0,0 1,1 2,2z"/>
   <path class="fil3" d="M2146 1761l4 -15c-11,2 -6,-1 -12,7l7 7z"/>
   <path class="fil3" d="M2512 2450l1 21c0,1 1,2 1,3 2,5 3,3 5,6 -1,-9 -1,-10 -3,-16l-5 -14z"/>
   <path class="fil3" d="M2008 1335c3,-5 2,-4 4,-11l-11 0c2,10 -2,6 7,11z"/>
   <path class="fil3" d="M2023 1135c3,7 0,4 5,10 5,5 2,2 10,5 -9,-16 1,-6 -15,-15z"/>
   <polygon class="fil3" points="2060,1342 2068,1342 2068,1331 2060,1331 "/>
   <path class="fil3" d="M2112 1705l0 -19 -4 0c0,20 -11,8 4,19z"/>
   <path class="fil3" d="M2101 1546c-11,4 -6,-8 -7,11l7 0 0 -11z"/>
   <path class="fil3" d="M2134 1754c-3,-15 -1,-11 -11,-15 7,12 0,7 11,15z"/>
   <polygon class="fil3" points="2374,2268 2386,2269 2386,2257 "/>
   <path class="fil3" d="M2538 2498l0 -22 -4 0c0,2 0,10 0,11l4 11z"/>
   <path class="fil3" d="M2527 2483l0 -19 -4 0c0,2 0,9 0,11 2,7 1,4 3,8z"/>
   <path class="fil3" d="M2535 2476l0 -19 -4 0c0,2 0,9 0,11 2,7 1,4 3,8z"/>
   <polygon class="fil3" points="2049,1202 2053,1202 2053,1187 2049,1187 "/>
   <polygon class="fil3" points="2338,2176 2342,2176 2342,2165 2338,2165 "/>
   <path class="fil3" d="M2109 1342c-4,-2 6,-7 -6,-2 -8,4 -1,0 -5,5 10,-3 3,0 11,-4z"/>
   <path class="fil3" d="M2505 2413l0 -11 -4 0c0,20 0,6 4,11z"/>
   <path class="fil3" d="M2497 2417l0 11 4 0c0,-20 0,-6 -4,-11z"/>
   <path class="fil3" d="M2097 1743l0 -11 -4 0c0,20 0,6 4,11z"/>
   <path class="fil3" d="M2527 2495l0 11 4 0c0,-20 0,-6 -4,-11z"/>
   <path class="fil3" d="M2127 1598c-3,-11 1,-6 -7,-11 3,11 -1,6 7,11z"/>
   <path class="fil3" d="M2338 1957c3,11 -1,6 7,11 -3,-11 0,-5 -7,-11z"/>
   <path class="fil3" d="M2064 1242c1,4 8,8 5,1 -1,-3 -7,-10 -5,-1z"/>
   <path class="fil3" d="M1942 1172c-1,8 5,3 5,-1 0,0 -3,-8 -5,1z"/>
   <path class="fil3" d="M2509 2428c0,-2 0,-6 0,-7 -2,-7 -1,-4 -3,-8 0,2 0,6 0,7 2,7 1,4 3,8z"/>
   <path class="fil3" d="M2497 2417c0,-2 0,-6 0,-7 -2,-7 -1,-4 -3,-8 0,2 0,6 0,7 2,7 1,4 3,8z"/>
   <path class="fil3" d="M2527 2491c12,0 1,-7 0,-7l0 7z"/>
   <path class="fil3" d="M2364 2254c4,4 13,-5 4,-2 0,0 -11,-4 -4,2z"/>
   <path class="fil3" d="M1953 1494c4,4 13,-5 4,-2 0,0 -11,-4 -4,2z"/>
   <path class="fil3" d="M1871 798c4,4 13,-5 4,-2 0,0 -11,-4 -4,2z"/>
   <path class="fil3" d="M2038 1542c4,4 13,-5 4,-2 0,0 -11,-4 -4,2z"/>
   <path class="fil3" d="M2042 1165c0,1 4,1 4,1 1,0 6,9 2,-1 0,0 -7,-7 -6,0z"/>
   <path class="fil3" d="M2075 1509c0,1 4,1 4,1 1,0 6,9 2,-1 0,0 -7,-7 -6,0z"/>
   <path class="fil3" d="M2138 1631c0,1 4,1 4,1 1,0 6,9 2,-1l-2 -1c-3,0 -5,-6 -4,1z"/>
   <path class="fil3" d="M2060 1146c0,9 6,1 2,0 0,0 -2,-11 -2,0z"/>
   <path class="fil3" d="M2112 1724c0,9 6,1 2,0 0,0 -2,-11 -2,0z"/>
   <path class="fil3" d="M2509 2439c0,9 6,1 2,0 0,0 -2,-11 -2,0z"/>
   <path class="fil3" d="M2109 1620c-2,-9 2,-5 -7,-7l7 7z"/>
   <path class="fil3" d="M2164 1791c2,9 -2,5 7,7l-7 -7z"/>
   <polygon class="fil3" points="1920,1354 1912,1350 1912,1354 "/>
   <polygon class="fil3" points="2479,2402 2479,2406 2483,2403 "/>
   <polygon class="fil3" points="2053,1317 2053,1320 2057,1317 "/>
   <polygon class="fil3" points="1990,857 1990,853 1986,857 "/>
   <polygon class="fil3" points="1671,1461 1668,1461 1671,1465 "/>
   <polygon class="fil3" points="1946,1372 1946,1368 1941,1371 "/>
   <polygon class="fil3" points="2090,1665 2094,1665 2091,1660 "/>
   <polygon class="fil3" points="2090,1665 2086,1665 2089,1669 "/>
   <polygon class="fil3" points="2401,1235 2405,1235 2402,1231 "/>
   <polygon class="fil3" points="2123,1624 2123,1628 2128,1625 "/>
   <polygon class="fil3" points="1946,1242 1942,1242 1945,1247 "/>
   <polygon class="fil3" points="2127,1598 2127,1602 2131,1599 "/>
   <polygon class="fil3" points="2220,1583 2220,1587 2224,1584 "/>
   <polygon class="fil3" points="2386,2187 2383,2187 2386,2191 "/>
   <polygon class="fil3" points="2105,1568 2105,1565 2100,1568 "/>
   <polygon class="fil3" points="2334,1950 2334,1946 2330,1949 "/>
   <polygon class="fil3" points="1790,916 1790,913 1786,916 "/>
   <polygon class="fil3" points="2097,1743 2097,1746 2102,1743 "/>
   <polygon class="fil3" points="2509,2428 2509,2432 2513,2428 "/>
   <polygon class="fil3" points="2134,1609 2134,1605 2130,1609 "/>
   <polygon class="fil3" points="2083,1542 2083,1546 2087,1543 "/>
   <polygon class="fil3" points="1920,1354 1920,1357 1924,1354 "/>
   <polygon class="fil3" points="2512,2450 2512,2446 2508,2449 "/>
   <path class="fil3" d="M2057 1546c0,0 0,1 0,1l2 -1c0,0 -1,0 -1,0 0,0 -1,0 -1,0z"/>
   <path class="fil3" d="M1927 957l1 -1c0,0 -1,1 -1,1z"/>
   <path class="fil3" d="M2305 1868l1 -1c0,0 -1,1 -1,1z"/>
   <path class="fil3" d="M1931 1365l1 -1c0,0 -1,1 -1,1z"/>
   <path class="fil3" d="M2175 1809l1 -1c0,0 -1,1 -1,1z"/>
   <path class="fil3" d="M2212 1720l1 -1c0,0 -1,1 -1,1z"/>
   <path class="fil3" d="M2231 1754l1 -1c0,0 -1,1 -1,1z"/>
   <path class="fil3" d="M2342 1039l1 -1c0,0 -1,1 -1,1z"/>
   <path class="fil3" d="M1931 1254l1 -1c0,0 -1,1 -1,1z"/>
   <path class="fil3" d="M2375 2180l1 -1c0,0 -1,1 -1,1z"/>
   <path class="fil3" d="M2386 2117l1 -1c0,0 -1,1 -1,1z"/>
   <path class="fil3" d="M2194 1783l1 -1c0,0 -1,1 -1,1z"/>
   <path class="fil3" d="M2316 2057l1 -1c0,0 -1,1 -1,1z"/>
   <path class="fil3" d="M2112 1609l1 -1c0,0 -1,1 -1,1z"/>
   <path class="fil3" d="M2483 2413l1 -1c0,0 -1,1 -1,1z"/>
   <path class="fil3" d="M2168 1780l1 -1c0,0 -1,1 -1,1z"/>
   <path class="fil3" d="M2334 2376l1 -1c0,0 -1,1 -1,1z"/>
   <path class="fil3" d="M2216 1646l1 -1c0,0 -1,1 -1,1z"/>
   <path class="fil3" d="M1871 842l1 -1c0,0 -1,1 -1,1z"/>
   <path class="fil3" d="M2464 2417l1 -1c0,0 -1,1 -1,1z"/>
   <path class="fil3" d="M2086 1328l1 -1c0,0 -1,1 -1,1z"/>
   <path class="fil3" d="M2253 1724l1 -1c0,0 -1,1 -1,1z"/>
   <path class="fil3" d="M2064 1157l1 -1c0,0 -1,1 -1,1z"/>
   <path class="fil3" d="M2397 2335l1 -1c0,0 -1,1 -1,1z"/>
   <path class="fil3" d="M2034 1376l1 -1c0,0 -1,1 -1,1z"/>
   <polygon class="fil3" points="2149,1765 2146,1761 "/>
   <polygon class="fil3" points="2164,1791 2160,1783 "/>
   <polygon class="fil3" points="2475,2409 2477,2417 "/>
   <polygon class="fil3" points="2138,1617 2134,1609 "/>
   <polygon class="fil3" points="2338,1957 2334,1950 "/>
   <polygon class="fil3" points="2027,1235 2027,1239 "/>
   <polygon class="fil3" points="2501,2439 2499,2431 "/>
   <polygon class="fil3" points="2053,1268 2055,1276 "/>
   <polygon class="fil3" points="2501,2439 2503,2447 "/>
   <polygon class="fil3" points="2038,1265 2034,1257 "/>
   <polygon class="fil3" points="2034,1257 2031,1250 "/>
   <polygon class="fil3" points="2023,1646 2025,1654 "/>
   <polygon class="fil3" points="1864,809 1868,802 "/>
   <polygon class="fil3" points="2527,2495 2527,2491 "/>
   <polygon class="fil3" points="2101,1546 2109,1544 "/>
   <polygon class="fil3" points="2031,1250 2027,1246 "/>
   <polygon class="fil3" points="1794,920 1790,916 "/>
  </g>
  <path class="fil2" d="M2482 1342l27 -17 2 0 0 141c0,6 1,9 2,10 2,1 5,2 11,2l0 1 -43 0 0 -1c3,0 6,0 8,-1 2,0 3,-2 4,-4 1,-2 1,-5 1,-10l0 -114c0,-3 0,-5 -1,-7 -1,-2 -2,-3 -4,-3 -2,0 -4,1 -8,3l0 -1z"/>
  <path id="1" class="fil2" d="M2536 1471c0,-3 1,-6 3,-8 2,-2 5,-3 8,-3 3,0 6,1 8,3 2,2 3,5 3,8 0,3 -1,6 -3,8 -2,2 -5,3 -8,3 -3,0 -5,-1 -8,-3 -2,-2 -3,-5 -3,-8z"/>
  <path id="2" class="fil2" d="M2636 1329l0 -1 70 0c18,0 32,1 42,4 10,3 19,7 27,13 8,6 14,14 18,23 5,9 7,20 7,31 0,11 -2,22 -7,33 -5,11 -11,20 -19,28 -8,8 -16,13 -25,16 -9,3 -23,4 -41,4l-72 0 0 -1 2 0c4,0 6,-1 7,-5 1,-3 2,-8 2,-16l0 -111c0,-8 -1,-13 -2,-15 -1,-2 -4,-3 -9,-3zm52 2l-23 0 0 118c0,7 1,13 4,17 3,4 7,6 13,8 6,2 14,2 25,2 29,0 49,-7 60,-22 12,-15 17,-31 17,-48 0,-20 -8,-38 -24,-53 -16,-15 -40,-22 -72,-22z"/>
  <path id="3" class="fil2" d="M2958 1481l-29 0 0 -24c-15,16 -32,25 -53,25 -15,0 -27,-4 -36,-13 -9,-9 -13,-20 -13,-35l0 -92c0,-6 -1,-9 -2,-11 -1,-1 -4,-2 -9,-2l0 -1 41 0 0 1c-4,0 -7,1 -9,2 -2,1 -3,5 -3,10l0 84c0,18 4,30 12,38 8,8 18,11 28,11 17,0 31,-7 44,-22l0 -104c0,-9 -1,-14 -2,-16 -2,-2 -4,-3 -7,-3l-1 0 0 -1 40 0 0 1c-5,0 -8,1 -9,2 -1,1 -2,4 -2,8l0 125c0,5 0,8 1,10 0,2 1,3 3,4 1,1 4,1 8,1l0 1z"/>
  <path id="4" class="fil2" d="M2975 1329l0 -1 40 0c12,0 20,0 25,1 5,1 9,3 14,6 4,3 8,7 11,12 3,5 5,11 5,18 0,13 -6,23 -19,31 11,2 19,6 25,14 6,7 8,16 8,26 0,10 -2,18 -7,26 -5,8 -10,13 -17,16 -6,3 -15,4 -26,4l-59 0 0 -1c5,0 8,-1 9,-3 1,-2 2,-7 2,-15l0 -115c0,-6 0,-9 0,-11 0,-2 -1,-4 -3,-4 -2,-1 -4,-1 -7,-1zm28 2l0 67 19 0c13,0 21,-4 25,-11 4,-7 6,-14 6,-21 0,-8 -2,-14 -5,-19 -3,-5 -8,-9 -14,-12 -6,-3 -15,-4 -27,-4l-4 0zm12 70l-12 0 0 48c0,7 0,11 1,13 1,2 2,4 4,6 2,2 5,4 9,5 4,1 10,2 18,2 12,0 20,-3 25,-8 5,-5 7,-14 7,-24 0,-11 -2,-20 -7,-27 -4,-7 -9,-11 -15,-13 -5,-2 -16,-2 -30,-2z"/>
  <path id="5" class="fil2" d="M3099 1329l0 -1 96 0 0 21 -1 0c-2,-8 -4,-12 -5,-14 -1,-1 -5,-2 -10,-2l-51 0 0 69 47 0c5,0 8,0 9,-1 1,-1 2,-2 2,-4l1 0 0 14 -1 0c0,-2 -1,-3 -2,-4 -1,-1 -4,-1 -7,-1l-48 0 0 47c0,7 1,12 2,15 1,3 3,5 6,6 3,1 7,1 13,1l27 0c9,0 14,0 17,-1 2,-1 4,-2 6,-4 2,-2 3,-6 4,-12l1 0 0 21 -105 0 0 -1c4,0 6,-1 8,-2 2,-1 3,-4 3,-9l0 -124c0,-6 0,-10 -1,-12 -1,-2 -4,-3 -9,-3z"/>
  <path id="6" class="fil2" d="M3340 1328l29 0 0 1c-4,0 -7,1 -9,3 -2,2 -3,5 -3,11l0 139 -122 -130 0 113c0,4 0,6 1,8 1,2 1,3 2,4 1,1 4,1 8,2l0 1 -29 0 0 -1c5,0 9,-1 10,-3 1,-2 2,-6 2,-13l0 -104c0,-9 -1,-16 -4,-22 -3,-6 -8,-8 -17,-8l0 -1 29 0 115 122 0 -108c0,-6 -1,-9 -3,-11 -2,-1 -5,-2 -8,-2l0 -1z"/>
  <path id="7" class="fil2" d="M2833 1705l-7 24 -101 0 0 -4c29,-23 48,-42 59,-60 11,-17 16,-33 16,-48 0,-12 -3,-22 -9,-29 -6,-7 -14,-10 -23,-10 -8,0 -16,3 -24,8 -7,6 -13,12 -17,20l-4 -2c7,-11 15,-20 23,-24 8,-5 18,-7 28,-7 14,0 25,4 33,12 8,8 12,18 12,30 0,11 -4,23 -13,36 -9,13 -23,29 -43,48l-18 17 64 0c6,0 10,-1 13,-2 2,-1 5,-4 8,-9l2 0z"/>
  <path id="8" class="fil2" d="M2896 1732c-15,0 -28,-7 -37,-20 -9,-13 -14,-31 -14,-53 0,-25 5,-46 16,-62 11,-16 24,-24 41,-24 9,0 17,3 24,8 8,5 14,13 19,24 5,11 7,25 7,42 0,24 -5,44 -15,60 -10,16 -24,25 -40,25zm7 -6c8,0 15,-5 22,-15 7,-10 10,-25 10,-46 0,-26 -4,-47 -11,-63 -7,-16 -17,-24 -30,-24 -9,0 -17,5 -23,15 -6,10 -10,26 -10,46 0,25 4,45 11,61 8,16 18,24 30,24z"/>
  <path id="9" class="fil2" d="M2967 1591l27 -17 2 0 0 141c0,6 1,9 2,10 2,1 5,2 11,2l0 1 -43 0 0 -1c3,0 6,0 8,-1 2,0 3,-2 4,-4 1,-2 1,-5 1,-10l0 -114c0,-3 0,-5 -1,-7 -1,-2 -2,-3 -4,-3 -2,0 -4,1 -8,3l0 -1z"/>
  <path id="10" class="fil2" d="M3018 1603l4 -26 105 0 -73 155 -11 0 67 -141 -59 0c-8,0 -14,1 -20,2 -6,1 -10,5 -11,11l-1 0z"/>
  <path id="11" class="fil4 str0" d="M2482 1342l27 -17 2 0 0 141c0,6 1,9 2,10 2,1 5,2 11,2l0 1 -43 0 0 -1c3,0 6,0 8,-1 2,0 3,-2 4,-4 1,-2 1,-5 1,-10l0 -114c0,-3 0,-5 -1,-7 -1,-2 -2,-3 -4,-3 -2,0 -4,1 -8,3l0 -1z"/>
  <path id="12" class="fil4 str0" d="M2536 1471c0,-3 1,-6 3,-8 2,-2 5,-3 8,-3 3,0 6,1 8,3 2,2 3,5 3,8 0,3 -1,6 -3,8 -2,2 -5,3 -8,3 -3,0 -5,-1 -8,-3 -2,-2 -3,-5 -3,-8z"/>
  <path id="13" class="fil4 str0" d="M2636 1329l0 -1 70 0c18,0 32,1 42,4 10,3 19,7 27,13 8,6 14,14 18,23 5,9 7,20 7,31 0,11 -2,22 -7,33 -5,11 -11,20 -19,28 -8,8 -16,13 -25,16 -9,3 -23,4 -41,4l-72 0 0 -1 2 0c4,0 6,-1 7,-5 1,-3 2,-8 2,-16l0 -111c0,-8 -1,-13 -2,-15 -1,-2 -4,-3 -9,-3zm52 2l-23 0 0 118c0,7 1,13 4,17 3,4 7,6 13,8 6,2 14,2 25,2 29,0 49,-7 60,-22 12,-15 17,-31 17,-48 0,-20 -8,-38 -24,-53 -16,-15 -40,-22 -72,-22z"/>
  <path id="14" class="fil4 str0" d="M2958 1481l-29 0 0 -24c-15,16 -32,25 -53,25 -15,0 -27,-4 -36,-13 -9,-9 -13,-20 -13,-35l0 -92c0,-6 -1,-9 -2,-11 -1,-1 -4,-2 -9,-2l0 -1 41 0 0 1c-4,0 -7,1 -9,2 -2,1 -3,5 -3,10l0 84c0,18 4,30 12,38 8,8 18,11 28,11 17,0 31,-7 44,-22l0 -104c0,-9 -1,-14 -2,-16 -2,-2 -4,-3 -7,-3l-1 0 0 -1 40 0 0 1c-5,0 -8,1 -9,2 -1,1 -2,4 -2,8l0 125c0,5 0,8 1,10 0,2 1,3 3,4 1,1 4,1 8,1l0 1z"/>
  <path id="15" class="fil4 str0" d="M2975 1329l0 -1 40 0c12,0 20,0 25,1 5,1 9,3 14,6 4,3 8,7 11,12 3,5 5,11 5,18 0,13 -6,23 -19,31 11,2 19,6 25,14 6,7 8,16 8,26 0,10 -2,18 -7,26 -5,8 -10,13 -17,16 -6,3 -15,4 -26,4l-59 0 0 -1c5,0 8,-1 9,-3 1,-2 2,-7 2,-15l0 -115c0,-6 0,-9 0,-11 0,-2 -1,-4 -3,-4 -2,-1 -4,-1 -7,-1zm28 2l0 67 19 0c13,0 21,-4 25,-11 4,-7 6,-14 6,-21 0,-8 -2,-14 -5,-19 -3,-5 -8,-9 -14,-12 -6,-3 -15,-4 -27,-4l-4 0zm12 70l-12 0 0 48c0,7 0,11 1,13 1,2 2,4 4,6 2,2 5,4 9,5 4,1 10,2 18,2 12,0 20,-3 25,-8 5,-5 7,-14 7,-24 0,-11 -2,-20 -7,-27 -4,-7 -9,-11 -15,-13 -5,-2 -16,-2 -30,-2z"/>
  <path id="16" class="fil4 str0" d="M3099 1329l0 -1 96 0 0 21 -1 0c-2,-8 -4,-12 -5,-14 -1,-1 -5,-2 -10,-2l-51 0 0 69 47 0c5,0 8,0 9,-1 1,-1 2,-2 2,-4l1 0 0 14 -1 0c0,-2 -1,-3 -2,-4 -1,-1 -4,-1 -7,-1l-48 0 0 47c0,7 1,12 2,15 1,3 3,5 6,6 3,1 7,1 13,1l27 0c9,0 14,0 17,-1 2,-1 4,-2 6,-4 2,-2 3,-6 4,-12l1 0 0 21 -105 0 0 -1c4,0 6,-1 8,-2 2,-1 3,-4 3,-9l0 -124c0,-6 0,-10 -1,-12 -1,-2 -4,-3 -9,-3z"/>
  <path id="17" class="fil4 str0" d="M3340 1328l29 0 0 1c-4,0 -7,1 -9,3 -2,2 -3,5 -3,11l0 139 -122 -130 0 113c0,4 0,6 1,8 1,2 1,3 2,4 1,1 4,1 8,2l0 1 -29 0 0 -1c5,0 9,-1 10,-3 1,-2 2,-6 2,-13l0 -104c0,-9 -1,-16 -4,-22 -3,-6 -8,-8 -17,-8l0 -1 29 0 115 122 0 -108c0,-6 -1,-9 -3,-11 -2,-1 -5,-2 -8,-2l0 -1z"/>
  <path id="18" class="fil4 str0" d="M2833 1705l-7 24 -101 0 0 -4c29,-23 48,-42 59,-60 11,-17 16,-33 16,-48 0,-12 -3,-22 -9,-29 -6,-7 -14,-10 -23,-10 -8,0 -16,3 -24,8 -7,6 -13,12 -17,20l-4 -2c7,-11 15,-20 23,-24 8,-5 18,-7 28,-7 14,0 25,4 33,12 8,8 12,18 12,30 0,11 -4,23 -13,36 -9,13 -23,29 -43,48l-18 17 64 0c6,0 10,-1 13,-2 2,-1 5,-4 8,-9l2 0z"/>
  <path id="19" class="fil4 str0" d="M2896 1732c-15,0 -28,-7 -37,-20 -9,-13 -14,-31 -14,-53 0,-25 5,-46 16,-62 11,-16 24,-24 41,-24 9,0 17,3 24,8 8,5 14,13 19,24 5,11 7,25 7,42 0,24 -5,44 -15,60 -10,16 -24,25 -40,25zm7 -6c8,0 15,-5 22,-15 7,-10 10,-25 10,-46 0,-26 -4,-47 -11,-63 -7,-16 -17,-24 -30,-24 -9,0 -17,5 -23,15 -6,10 -10,26 -10,46 0,25 4,45 11,61 8,16 18,24 30,24z"/>
  <path id="20" class="fil4 str0" d="M2967 1591l27 -17 2 0 0 141c0,6 1,9 2,10 2,1 5,2 11,2l0 1 -43 0 0 -1c3,0 6,0 8,-1 2,0 3,-2 4,-4 1,-2 1,-5 1,-10l0 -114c0,-3 0,-5 -1,-7 -1,-2 -2,-3 -4,-3 -2,0 -4,1 -8,3l0 -1z"/>
  <path id="21" class="fil4 str0" d="M3018 1603l4 -26 105 0 -73 155 -11 0 67 -141 -59 0c-8,0 -14,1 -20,2 -6,1 -10,5 -11,11l-1 0z"/>
  <g id="_494789520">
   <path class="fil5" d="M2232 2937l36 -13c19,-3 26,1 40,9 13,7 56,33 62,44 -56,10 -111,-8 -138,-40zm343 72c63,-24 124,-39 203,-38 -9,-22 -60,-32 -74,-90 -11,-49 35,-86 66,-100 99,-45 192,2 224,81 38,93 -70,165 -135,185 -67,20 -265,5 -284,-38zm646 -131c-32,-17 -51,-55 -36,-105 -46,10 -16,67 -10,99 -138,0 -39,-8 -133,22 25,-109 -1,-108 23,-150 34,-61 160,-60 191,-24 24,28 32,50 88,92 12,9 43,32 51,41 -13,25 -77,81 -120,41 -42,-41 17,-93 35,-62 7,12 -5,21 -11,33 79,-6 18,-118 -42,-47 -8,9 -9,12 -13,21l-10 30c-16,-100 22,-112 0,-143 -5,7 -25,60 -27,69 -7,35 5,60 15,83zm-942 -159c61,4 104,35 135,66 15,15 27,44 33,70 9,42 -3,56 -22,80 -23,-1 -72,-28 -86,-42 29,-61 35,-121 -37,-158l-22 -15zm194 75c18,-7 55,-40 72,-54 68,-52 51,-43 158,-43 -1,1 -2,2 -2,4l-10 12c-23,21 -63,43 -78,107 -10,43 2,92 33,120 27,24 21,9 25,26 -17,5 -117,34 -121,34 -16,-2 -96,-43 -107,-53 10,-31 43,-51 7,-135 -8,-19 -19,-38 -30,-53 -18,-23 -29,-25 -43,-40 10,-10 54,-44 70,-47 13,-3 46,16 58,25 1,1 2,2 2,2l5 12c13,-11 33,-24 52,-37 31,-23 24,-27 63,-10 -13,25 -137,106 -153,129zm258 159c-56,27 -160,-80 -69,-201 23,-31 64,-49 99,-76 35,-26 64,-65 118,-32 -6,12 -55,46 -75,61 -51,40 -131,76 -120,161 6,52 51,72 48,85zm-269 -337c18,-12 52,-16 73,-17 68,-2 157,30 210,66 -4,10 -12,17 -24,18 -34,3 -92,-56 -181,-57 -39,0 -48,16 -78,-10zm208 3c4,-10 -1,-17 36,-29 17,-6 34,-9 50,-13 63,-16 143,0 203,27 14,7 65,44 72,57 -52,50 -50,-8 -156,-39 -35,-10 -66,-14 -105,-10 -16,1 -34,6 -48,10 -35,11 -22,5 -51,-3zm267 -37l9 -10c25,-20 74,-42 107,-45 75,137 150,91 160,128 -59,-1 -61,-6 -110,19 -53,26 -37,42 -65,72 -7,-21 -24,-37 -28,-55 23,-18 86,-52 51,-93 -14,-16 -38,-21 -62,-13 -30,11 -28,15 -61,-4zm706 -319c3,-58 28,-65 52,-99 43,-61 60,-154 48,-232 -15,-94 -3,-141 -54,-231 -35,-62 -72,-149 -58,-227 7,-40 32,-69 38,-103 -197,217 -14,338 18,450 25,86 26,189 -63,230 -94,43 -192,-29 -120,-134 39,-57 113,-30 113,37 0,30 -27,55 -56,37 -27,-17 -24,-46 -41,-65 -36,58 32,128 97,89 23,-14 28,-59 23,-91 -16,-110 -144,-84 -181,7 -35,86 29,111 36,173 26,-11 28,-19 66,-14 19,44 16,102 -8,145 -10,-14 -4,-107 -43,-122 11,59 29,131 -2,186 0,-26 4,-47 3,-72 -1,-21 3,-56 -15,-65 -5,15 -1,76 -11,112 -12,39 -20,73 -8,117l10 -12c12,-19 21,-36 36,-52 14,-14 2,-10 22,-12 3,29 -13,37 -19,64 28,-8 41,-16 63,5 -4,17 -2,12 -22,23 -28,14 -52,28 -72,56 15,36 29,76 28,119 -1,47 -1,80 -26,114 -42,-22 -68,-54 -111,-72l-9 -5c0,-1 -2,-1 -3,-1 -17,17 -37,29 -68,38 -41,11 -49,6 -67,-24 -12,-21 -27,-46 -34,-73l-14 -90c-26,37 7,115 6,156 -41,0 -88,-38 -104,-73 -6,-13 -8,-32 -16,-44 -89,-1 -149,70 -180,65 -90,-15 -127,-20 -204,14 -59,26 -26,23 -92,9 -81,-17 -132,15 -164,13 -45,-4 -64,-38 -154,-16 1,1 2,2 3,2l10 5c26,10 53,14 77,28l-5 4c-76,44 -93,-28 -242,-18 -34,2 -197,43 -222,81 59,-10 124,-43 183,-53 77,-12 130,12 195,28l-25 6c-26,-2 -51,-10 -79,-10 -42,0 -217,56 -232,105l12 5c2,0 3,1 4,1 3,1 13,2 17,2 29,3 74,5 94,21 -23,23 -68,56 -75,96 26,-14 46,-43 71,-60 23,-15 51,-30 74,-46 -19,-25 -70,-26 -98,-45 76,-45 360,4 277,134 -27,-3 -58,-25 -84,-32 -15,-4 -36,-6 -52,-8 -38,-6 -37,-5 -50,8 23,9 110,48 123,66 -20,10 -39,8 -63,6 10,27 55,57 90,65 42,10 116,-12 131,23 -50,10 -40,-4 -79,-8 -24,-3 -56,5 -67,23l30 -1c33,-2 64,15 94,22 55,12 75,-9 129,11 80,29 162,48 259,33 161,-23 186,-87 252,-131 53,-35 101,-61 164,-29 -32,2 -98,-8 -114,19 24,-7 108,-8 122,24 -31,7 -42,-3 -80,11 -59,20 -126,76 -127,126 0,13 0,8 4,15 32,-119 117,-113 209,-136 31,-7 54,-22 81,-30 -18,22 -35,34 -62,55 -46,35 -60,25 -70,52 39,-8 203,-103 258,-125 15,-6 31,-11 48,-13 15,-2 17,1 29,1 34,1 10,7 24,-7 -63,-28 -88,-5 -145,6 5,-12 42,-47 51,-54 65,29 107,50 180,67 49,11 186,6 205,-30 -11,-6 -70,15 -94,17 -45,2 -70,-3 -110,-12 -56,-13 -128,-37 -166,-69 67,-140 109,-154 146,-342 12,-60 0,-91 56,-110 -7,29 -36,104 -26,129 13,-5 9,-6 14,-24 13,-48 30,-98 57,-138 12,-18 21,-27 30,-44 -31,13 -57,47 -105,60 3,-20 7,-42 13,-61 10,-37 85,-57 104,-119 -25,13 -21,24 -44,40 -11,8 -33,25 -47,29z"/>
   <path class="fil5" d="M2449 548c37,-19 45,-27 71,-51 36,11 55,40 74,68 -31,6 -42,37 -75,24 -19,-7 -61,-28 -70,-41zm-378 -35c15,-8 54,-5 77,-9 117,-23 112,-65 187,-11l-4 7c-1,1 -1,2 -2,3l-10 28c-70,11 -186,12 -247,-18zm788 20c20,-6 147,30 214,-66 20,-29 15,-40 26,-73 33,32 31,127 -55,182 -56,36 -64,28 -96,10 -15,-8 -31,-14 -44,-23 -14,-9 -28,-20 -44,-29zm-459 -118c52,61 -33,102 -60,110 11,-18 16,-27 24,-42 -29,-8 -10,1 -30,-16 -11,-9 -16,-10 -26,-20l91 -32zm16 -11c23,-12 74,-38 99,-39 33,42 16,58 4,104 -9,1 -18,0 -27,1l-27 8c10,7 26,7 32,10 -81,105 -354,90 -428,41 66,6 133,46 254,23 148,-27 134,-119 92,-148zm664 -16c22,66 -106,160 -235,104 -105,-45 -51,-143 22,-133 34,5 53,7 64,29 -9,13 -17,15 -28,32 -30,49 25,70 44,36 11,-20 6,-42 4,-64 32,-7 93,-14 128,-4zm-142 207c-76,7 -168,-46 -204,-87 -61,-72 -7,-170 79,-156 -3,16 -15,14 -29,29 -8,8 -16,23 -19,40 -6,35 16,65 34,80l139 95zm-151 -33c-54,34 -86,14 -132,-16 -32,-21 -85,-61 -116,-73 1,-25 12,-36 9,-64 -2,-23 -16,-35 -23,-50 9,-9 87,-43 105,-45 12,-1 112,24 123,30 -12,12 -82,42 -58,120 12,40 45,67 78,87 1,1 5,3 6,4 6,4 5,3 8,7zm439 17c-20,-109 49,-237 108,-270 -7,20 -18,58 -25,75 -21,47 -72,123 -83,195zm-567 -274c17,-29 124,-30 180,22 2,2 5,8 6,7 1,-1 2,2 3,4 -57,-2 -140,-9 -189,-32zm105 -30c50,-24 278,-12 314,99 -29,2 -60,-2 -89,2 -12,1 -27,7 -36,7 -21,2 -10,0 -27,-12 5,-16 13,-18 16,-32 -40,-9 -82,5 -90,-5l-7 -9c-27,-31 -60,-33 -80,-50zm630 247c-45,-38 -84,-67 -57,-163 17,-59 60,-95 100,-123 -11,-6 -7,-6 -36,7 -75,34 -157,97 -179,181l-98 -38c-37,-18 -144,-221 -505,-121 -99,28 -74,-2 -185,18 -4,1 -25,4 -28,5 -28,9 -11,2 -20,15 47,3 112,-33 156,-13 -6,5 -57,31 -68,34 -23,5 -66,-4 -99,1 -57,9 -83,42 -103,47 -17,4 -22,-2 -40,7 7,8 -16,9 39,3 -11,51 -9,41 -52,58 -26,11 -48,19 -74,27 -78,25 -102,14 -175,13 5,16 29,21 42,28 70,39 176,88 258,84 78,-3 68,-28 109,5l-60 21c-131,27 -207,-2 -324,-50 -21,-8 -37,-15 -55,-22 -25,-11 -30,-9 -49,-27 -69,59 -102,43 -206,46 -54,2 -153,55 -161,89 11,-5 32,-25 42,-32 52,-36 111,-47 176,-46 159,2 112,-56 173,-29 134,59 267,116 419,78 16,-4 47,-17 56,-18 16,-2 40,10 59,12 -8,9 4,1 -13,10l-33 10c-13,4 -35,5 -45,11 54,28 138,-16 174,-10 83,15 98,16 181,2 26,-4 48,14 75,22 81,25 113,10 172,9 29,0 50,14 70,24 -17,5 -28,5 -43,17 8,19 15,19 29,31 53,44 91,205 166,232 -7,-21 -28,-44 -41,-65 -35,-60 -32,-104 -57,-144 -16,-25 -30,-26 -49,-51l68 1c-6,-31 -50,-40 -72,-59 13,-14 29,-22 38,-35l-95 16c55,-46 191,-37 164,-241 29,5 51,24 77,32 -1,23 -8,39 -11,61 -11,86 24,195 56,272 26,65 11,85 26,105 9,-162 -20,-104 -44,-215 -11,-55 24,-181 53,-205 5,7 2,-2 3,11l0 8c0,2 -4,11 -6,17 13,-4 5,6 22,-33 1,1 3,3 5,8 26,43 36,48 43,60 -6,10 -26,26 -35,39 -11,14 -15,33 -30,37 -16,-25 7,-62 14,-88 -58,9 -71,121 -46,184 10,-13 0,-25 18,-32 9,24 -1,75 20,97 18,-47 -6,-102 19,-148 12,-21 20,-31 35,-48 13,-15 29,-25 36,-42z"/>
   <path class="fil5" d="M1705 3068c-50,10 -68,-25 -85,-61 -28,-62 28,-174 74,-206 145,-103 220,50 209,161 -14,140 -87,150 -119,178 124,3 143,-66 213,-116 100,-71 157,-24 257,-1 -17,-38 -63,-66 -115,-77 -68,-14 -112,5 -175,8 -9,-101 -31,-161 -87,-213 -60,-57 -165,-33 -219,12 -50,41 -85,110 -128,169 -47,63 -98,88 -201,95 2,-12 17,-63 20,-70 8,-11 194,-69 199,-152 -41,13 -20,39 -141,92 -98,43 -38,-32 -69,-112 -5,-14 -2,-7 -8,-13 -16,9 -42,53 -83,79 -16,10 -37,16 -57,19 -28,3 -39,-3 -57,22 25,13 71,8 98,2 59,-14 49,-27 73,-31 5,38 2,76 -5,111 -7,33 -22,61 -25,94 127,0 237,-28 294,-137 15,-29 27,-74 53,-86 0,44 -39,84 -38,117 1,32 29,89 38,114 -29,20 -69,14 -107,12l13 12c20,13 98,25 119,25 218,3 254,-204 176,-250 7,49 16,66 -4,112 -13,29 -26,53 -59,63 -47,14 -70,-6 -90,-28 -29,-31 -23,-43 -29,-94 -16,33 -10,69 8,96 6,9 20,23 28,30 10,8 25,14 29,24z"/>
   <path class="fil5" d="M3691 1007c34,-24 81,-114 98,-170 23,-78 16,-166 -1,-244 -44,26 22,100 -16,232 -14,48 -67,142 -94,164 8,-28 22,-49 31,-82 7,-26 15,-66 13,-97 -21,7 -17,12 -21,40 -5,35 -20,101 -38,127 -15,-21 -12,-60 -8,-90 8,-62 16,-39 31,-71 -20,-10 -58,-27 -79,-28 -14,43 -15,89 -14,137l-35 16c-9,7 -13,18 -17,29 1,1 2,2 3,3l40 39c-2,-36 -14,-30 -21,-51 33,-10 37,-1 47,30 7,22 13,36 25,58 8,15 28,36 27,53 -2,39 -75,88 -101,147 -20,46 4,104 42,112 -34,-83 -32,-103 41,-179 12,-13 29,-35 40,-43l14 60c-21,-1 -54,-1 -57,20 27,-12 34,-15 57,7 -9,6 2,4 -22,1 -83,-10 -49,82 -56,117 36,-11 73,-27 39,-66 -4,6 2,15 -6,35 -60,-11 13,-112 41,-40 19,48 -9,108 -22,148 -14,41 -38,97 -5,138 25,31 103,54 124,10 -78,25 -126,-36 -107,-116 7,-28 21,-63 31,-92 18,-51 8,-51 6,-103l11 16c20,39 2,85 -9,119 -13,39 -38,100 -6,134 27,30 88,44 103,-9 17,-58 -36,-105 -67,-47 7,3 28,-5 40,15 14,21 4,34 -5,48 -65,17 -60,-68 -41,-111 20,-45 40,-88 22,-147 -10,-34 -16,-32 -31,-56 -11,-17 -6,-54 -12,-78 -12,-49 -37,-80 -35,-138z"/>
   <path class="fil5" d="M928 2932c10,-4 59,-16 70,-15 28,1 48,41 215,39l-13 46c-64,3 -235,-35 -271,-70zm225 -88c27,-19 40,-26 63,-48 24,-22 97,-91 103,-121 -17,7 -50,35 -65,47l-60 52c-97,75 -94,52 -139,26l-41 23c18,21 22,7 31,30 -20,43 -208,44 -264,48 6,14 68,54 89,66 34,19 68,35 106,48 63,23 182,58 255,49 24,-27 46,-111 47,-158 -91,7 -65,32 -194,-11l69 -50z"/>
   <path class="fil5" d="M687 2616c48,-40 114,-25 151,-45 -11,-10 -24,-10 -39,-12 -42,-3 -83,4 -121,20 -29,12 -105,53 -118,72 107,8 220,16 305,68 -24,26 -63,-3 -89,-14 -29,-12 -57,-23 -92,-29 -341,-62 -453,231 -434,268 26,-41 27,-104 112,-164 55,-39 125,-61 209,-63 77,-1 164,16 219,52 38,24 171,-12 216,-26 -40,-65 -146,-97 -223,-111 -22,-4 -82,-9 -94,-18z"/>
   <path class="fil5" d="M913 2846c1,-1 1,-3 2,-4l3 -8c1,-1 1,-3 2,-4 11,-22 4,-11 52,-21 71,-15 117,-50 164,-102 -16,2 -73,50 -202,73 -60,11 -185,34 -240,13 -219,-86 -383,67 -379,123 23,0 36,-13 55,-22 67,-30 103,-31 169,-50 -70,-15 -127,19 -188,34 40,-61 152,-83 232,-78 55,4 73,15 112,40 17,11 61,32 84,34l30 -7 -28 -13c-16,-8 -15,-7 -14,-19 19,-9 54,-2 79,-2 45,-1 33,4 67,12z"/>
   <path class="fil5" d="M3605 402c-26,-27 11,-31 -70,-122 -62,-70 -79,-44 -116,-9 -94,89 -100,226 21,238 0,-48 0,-59 39,-93l23 -18c1,-1 2,-2 3,-3 1,-1 2,-2 3,-3 -84,9 -84,61 -94,82 -73,-12 36,-84 43,-95 -32,4 -45,18 -69,31 3,-59 42,-112 83,-133 19,8 66,61 76,83 13,25 7,38 31,52 15,8 43,24 53,26 5,-69 -5,-75 -22,-128 33,19 64,60 79,97 12,30 3,30 34,29 -9,-84 -149,-201 -216,-203 12,17 65,42 92,108 4,9 7,18 9,25 5,19 5,25 -3,35z"/>
   <path class="fil5" d="M3221 932c-5,-19 -24,-46 -35,-69 -32,-70 -38,-195 -10,-263 18,41 13,123 55,145 -3,-19 -23,-71 -30,-100 -5,-20 -8,-39 -10,-59 -1,-9 -1,-21 -3,-28 -3,-20 -4,-19 -10,-27 -5,22 -14,37 -18,60 -15,70 -25,127 -14,201 6,41 61,192 102,197 17,-18 1,-9 18,-14 -1,-21 -8,-29 -8,-59 0,-40 8,-113 -36,-143 1,29 34,70 18,127 -1,2 -7,16 -7,17l-9 13c0,-1 -2,2 -3,3z"/>
   <path class="fil5" d="M3288 2405c-19,-14 -46,-34 -73,-35 -1,21 4,17 17,33 104,120 37,236 0,168 -7,-13 -10,-27 -15,-39 -6,23 27,91 44,102 39,-53 84,-75 72,-156 -6,-47 -18,-50 -46,-72z"/>
   <path class="fil5" d="M3509 1227c-34,45 -26,103 -5,159l57 136c22,-67 5,-93 -24,-142 -41,-71 -17,-81 -29,-153z"/>
  </g>
  <g id="_389651432">
   <path class="fil5" d="M368 1103l3 6c3,18 -1,22 5,40 5,16 12,21 9,39l-30 3c-3,-32 1,-63 13,-89zm25 -263l35 -151c4,46 18,79 20,107 -10,12 -34,33 -55,44zm943 -185c-7,17 -8,20 -41,30 -89,27 -177,24 -261,-17 -14,-7 -63,-42 -71,-55 39,-36 37,-18 83,4 81,38 132,66 240,34 29,-8 25,-2 49,4zm215 3c-19,13 -57,17 -80,17 -70,0 -160,-32 -212,-66 6,-14 -6,-3 11,-13 16,-10 36,0 54,7 27,11 43,20 67,31 62,29 119,0 148,15 17,9 6,4 12,9zm29 -20c24,10 86,21 100,41 -61,-2 -179,-48 -210,-81l20 -14c36,15 56,41 90,54zm-805 -18c63,1 65,6 117,-21 49,-25 37,-43 64,-70 8,21 24,37 29,55 -25,19 -92,54 -50,95 17,16 41,18 65,9 37,-14 21,-6 61,3l-14 15c-24,19 -74,40 -108,43 -26,-46 -65,-90 -116,-106 -29,-9 -42,3 -49,-23zm815 -6c9,-9 63,-45 74,-51l27 12c-9,10 -35,29 -48,38 -22,15 -30,23 -52,1zm-1004 -9c-16,-3 -70,-42 -86,-55l7 -14c18,3 73,46 79,70zm0 -184c14,-25 80,-82 124,-41 17,16 23,55 -5,67 -12,5 -29,6 -33,-8 -4,-12 6,-18 13,-30 -83,6 -16,121 46,44 13,-17 10,-19 17,-37 0,-1 3,-5 3,-7 0,-2 1,-3 2,-4 4,26 6,56 2,82 -4,24 -16,41 -1,61 5,-7 26,-61 28,-74 5,-33 -7,-57 -17,-78 33,17 53,55 38,105 47,-9 16,-68 11,-99 145,0 42,7 138,-21 -6,27 -14,49 -14,80 1,36 9,38 -10,70 -35,59 -166,62 -200,21 -80,-97 -112,-100 -141,-131zm1152 129c-4,3 1,2 -11,3 -7,1 -5,1 -12,-1 -70,-11 -134,-63 -149,-133 -9,-42 3,-56 23,-80 23,1 76,29 89,42 -37,76 -38,120 59,168zm-455 -45c99,-98 -14,-170 -10,-184 48,-22 92,35 104,70 38,117 -94,177 -137,208 -36,27 -64,62 -119,30 8,-18 133,-95 163,-124zm164 95c-33,23 -25,27 -65,10 8,-15 62,-54 78,-66 17,-13 70,-50 79,-63 -18,7 -79,56 -97,71 -45,35 -53,27 -142,25l16 -18c31,-25 64,-49 78,-105 8,-32 2,-66 -12,-93 -14,-26 -27,-29 -39,-40 -8,-7 -6,-3 -9,-13 16,-5 121,-34 126,-34 19,2 98,42 111,54 -10,31 -45,51 -7,135 22,49 34,58 68,85 1,1 2,2 3,2l5 5c-11,11 -59,47 -76,48 -12,1 -57,-22 -63,-34 0,-1 0,-4 -1,-6 -13,11 -37,26 -54,37zm320 -254c-2,1 -18,4 -20,5 -29,3 -97,-45 -102,-53 58,-10 115,8 143,40l-21 9zm-543 -43c9,22 66,35 77,94 9,49 -41,83 -73,97 -101,43 -195,-5 -228,-82 -41,-95 76,-168 142,-186 67,-19 271,-4 292,39 -65,24 -128,39 -209,38zm-444 1c33,-6 43,3 83,-11 25,-8 45,-19 64,-30 31,-18 48,-45 62,-77 12,-29 5,-27 1,-34 -15,54 -59,104 -116,117 -32,7 -68,11 -100,19 -31,7 -56,22 -84,30 18,-23 37,-35 64,-55 46,-34 62,-26 72,-52 -33,7 -134,62 -176,82 -64,31 -102,66 -195,51 7,17 -4,6 13,17 33,22 105,-7 136,-12 -5,12 -43,47 -53,54 -57,-27 -120,-54 -188,-67 -62,-12 -110,-3 -170,9 -23,5 -31,6 -41,25 96,-23 116,-28 215,-7 53,11 131,39 168,68 -35,71 -84,136 -115,215 -54,136 -22,213 -94,237 7,-28 38,-104 27,-129 -15,6 -17,39 -23,55 -46,124 -51,99 -81,157 32,-13 59,-48 108,-60 -3,20 -7,43 -13,62 -11,38 -88,58 -108,119 16,-6 14,-9 24,-21 15,-19 45,-41 70,-48 -3,58 -29,65 -54,99 -45,62 -62,154 -49,232 6,40 4,92 15,128 13,39 23,72 41,103 37,63 74,149 60,227 -7,40 -33,70 -40,103 32,-38 71,-69 84,-137 33,-168 -71,-204 -103,-312 -13,-44 -24,-144 5,-182 98,-124 277,-45 184,86 -40,57 -117,30 -117,-37 0,-30 28,-55 58,-37 28,16 24,46 42,65 62,-97 -150,-165 -125,2 17,111 150,82 187,-7 36,-87 -30,-111 -37,-173 -27,11 -27,19 -69,14 -19,-44 -17,-103 9,-145 10,14 3,44 13,70 7,18 14,46 32,52 -12,-59 -30,-130 1,-186 4,24 -3,78 0,112 2,20 0,19 13,24 6,-16 1,-77 13,-116 16,-52 14,-64 7,-118 -1,1 -2,3 -2,3l-26 45c-10,13 -24,31 -42,32 -3,-29 14,-37 20,-64 -27,7 -51,18 -66,-10 6,-17 3,-13 24,-23 13,-6 16,-8 29,-15 18,-11 31,-22 45,-41 -17,-39 -30,-66 -29,-119 1,-48 1,-81 27,-114 45,22 68,53 115,72l12 6c18,-17 38,-29 70,-38 43,-11 51,-6 70,24 13,20 28,48 35,73l13 87c0,-1 1,3 1,4 27,-37 -7,-115 -6,-155 38,0 61,22 81,40 23,22 26,38 38,66 3,7 3,6 6,11 56,0 102,-21 145,-50 15,-10 19,-19 42,-15 93,15 131,20 211,-14 60,-26 26,-24 94,-10 34,7 86,5 118,-1 61,-12 40,-13 98,3 35,10 78,10 113,1 -1,-1 -2,-2 -3,-2l-90 -33c1,-1 2,-2 3,-2 43,-27 49,-20 116,2 88,28 175,13 261,-15 21,-7 37,-13 58,-21 18,-7 37,-13 49,-30 -60,10 -128,43 -189,53 -79,12 -135,-12 -202,-28 13,-11 31,-5 51,-1 51,9 102,2 150,-15 31,-11 134,-50 145,-85l-17 -6c-3,-1 -14,-2 -17,-2 -12,-1 -24,-3 -36,-5 -20,-3 -41,-7 -62,-12 15,-35 68,-45 78,-100l-73 60c-24,15 -53,29 -77,46 19,25 72,26 101,45 -48,28 -161,20 -209,-2 -56,-26 -124,-60 -77,-132 35,4 43,26 141,40 34,5 37,6 51,-8 -24,-9 -121,-50 -129,-70l66 -2c-11,-27 -57,-57 -93,-65 -50,-12 -105,10 -135,-18 3,-3 2,-3 9,-6l29 -2c36,6 84,29 112,-12 -1,0 -3,-1 -3,-1l-28 1c-35,2 -65,-14 -98,-22 -57,-12 -77,9 -134,-11 -86,-30 -161,-49 -268,-33 -112,16 -149,43 -218,95 -64,48 -124,111 -213,64 33,-2 102,8 117,-19 -24,7 -48,8 -76,1 -15,-4 -44,-11 -50,-25z"/>
   <path class="fil5" d="M772 903c2,-24 -31,-36 -60,-100 -21,-46 -26,-82 3,-119 41,-6 44,32 55,57 5,-23 -28,-90 -46,-101 -40,54 -86,74 -75,156 7,48 18,50 47,72 19,14 48,34 75,35z"/>
   <path class="fil5" d="M415 1656c7,-63 -31,-144 -53,-191 -32,-68 -64,-89 -47,-177 -45,32 -19,159 10,204 9,14 17,22 27,37 41,58 40,83 63,127z"/>
   <path class="fil5" d="M438 1380c-16,-19 -30,-3 -23,-52 10,-72 -63,-39 -19,29 11,18 24,31 42,23z"/>
  </g>
  <g id="_387199160">
   <path class="fil0" d="M409 2166l0 -5c-6,0 -7,4 -9,7 -4,1 -7,1 -11,2 -4,1 -6,4 -9,4 -6,1 -20,-1 -24,3 -1,3 6,18 11,21 3,-4 0,-5 9,-5 5,0 8,1 9,6 -15,0 -13,4 -21,3 -9,-1 -9,-7 -12,-13 -8,1 -9,19 12,19 3,4 1,6 12,3 5,-1 10,-2 13,3 -5,9 -37,6 -33,28 3,1 3,-1 6,-1 1,9 -2,12 14,25 4,3 8,5 12,8 6,4 8,2 13,-2 10,-8 22,-20 26,-32 3,-9 -2,-11 -1,-17l5 1c5,-7 -2,-24 -5,-31 -2,-5 -5,-10 -3,-16 2,-6 3,-12 1,-18 -8,-1 -7,6 -13,7z"/>
   <path class="fil0" d="M389 2053c-7,3 -18,15 -23,20 -7,9 -13,17 -15,29 -1,8 0,31 3,38 3,6 12,4 18,4l43 0c9,0 11,0 13,-9 3,-12 4,-26 1,-39 -2,-12 -30,-48 -41,-44z"/>
   <path class="fil0" d="M836 2102c0,-3 11,-37 12,-39 5,-1 5,3 6,7 2,7 9,28 9,32l-28 0zm-20 -57c-1,4 0,9 2,12 2,4 6,4 9,6 -4,13 -9,26 -14,39 -2,6 -5,13 -7,19 -1,4 -7,16 -6,20 3,1 19,1 22,0l7 -20c5,-1 36,-1 40,0 4,6 2,14 10,19 6,4 18,4 23,-1 -1,-3 -6,-11 -7,-16l-18 -51c-3,-10 -6,-26 -17,-29 -5,-1 -40,-1 -45,0z"/>
   <path class="fil0" d="M302 2245c2,-7 -8,-17 0,-30 8,-13 16,-7 25,-12 4,-10 -4,-25 5,-33 3,-3 7,-7 10,-10 3,-3 9,-8 2,-12 -17,-10 -46,-12 -63,0 -25,17 -25,58 -4,83 5,5 15,17 24,14z"/>
   <path class="fil0" d="M454 2202c5,6 16,-1 25,12 9,13 -1,24 1,31 16,4 34,-26 37,-40 6,-21 0,-44 -17,-57 -16,-12 -45,-10 -62,-1 -7,4 -5,6 0,11 13,13 15,12 15,24 0,6 -1,14 0,20z"/>
   <path class="fil0" d="M910 2045c-2,3 0,9 2,12 2,4 5,5 9,6 1,16 -3,49 3,62 8,17 29,20 46,18 19,-2 31,-13 32,-33 0,-7 1,-62 0,-65 -3,-2 -17,-2 -21,0 -2,3 -1,49 -1,57 0,31 -27,23 -31,18 -7,-7 -6,-14 -6,-23 0,-10 0,-19 0,-29 0,-7 2,-20 -6,-23 -4,-2 -23,-1 -27,0z"/>
   <path class="fil0" d="M694 2045c-1,4 0,9 2,12 2,4 6,4 9,6 0,11 -1,74 1,79 4,1 18,1 21,0 2,-4 0,-39 1,-48 9,8 26,43 38,48 6,3 18,3 23,-3 -1,-2 -37,-46 -37,-49 0,-4 35,-42 32,-45 -3,-1 -20,-2 -23,0 -4,2 -27,37 -32,42 -3,-21 8,-45 -15,-44 -4,0 -15,0 -19,1z"/>
   <path class="fil0" d="M471 2250c0,-8 10,-23 1,-33 -8,-8 -22,-6 -28,4 -9,16 1,43 24,53 35,15 70,-12 71,-46 0,-8 -2,-27 -11,-30 -2,2 -5,16 -7,21 -5,12 -15,24 -27,31 -6,3 -17,6 -23,1z"/>
   <path class="fil0" d="M310 2250c-12,8 -31,-5 -38,-13 -5,-6 -8,-10 -11,-17 -2,-4 -6,-20 -8,-21 -8,1 -20,33 0,60 20,27 65,27 82,-4 5,-9 7,-24 2,-33 -6,-10 -20,-12 -28,-3 -9,10 2,26 1,33z"/>
   <path class="fil0" d="M613 2120c-5,8 0,29 34,23 17,-3 31,-13 30,-32 -1,-19 -18,-22 -32,-30 -7,-4 -14,-12 -5,-17 10,-5 21,0 29,-1 1,-3 3,-15 2,-18 -10,-5 -37,-2 -47,4 -13,8 -14,29 -3,40 12,12 32,13 33,24 1,13 -21,12 -30,9 -3,-1 -7,-4 -11,-3z"/>
   <path class="fil0" d="M1022 2063c5,3 19,0 25,1 1,18 -3,51 1,67 6,22 39,13 37,-5 -10,-5 -16,8 -16,-23 0,-11 -1,-29 0,-39 6,-3 19,2 25,-1 1,-4 1,-15 0,-18 -1,-1 -61,-1 -69,-1 -5,0 -4,3 -4,8 0,4 0,8 0,11z"/>
   <path class="fil0" d="M343 2127c2,-3 0,-16 2,-28 1,-9 4,-14 9,-22 7,-10 13,-16 21,-24 2,-2 7,-4 8,-8 -8,-10 -53,-15 -67,17 -5,11 -6,31 1,41 3,4 21,24 25,23z"/>
   <path class="fil0" d="M398 2047c1,1 13,12 16,14 5,5 9,11 14,17 17,24 8,38 10,50 4,1 11,-7 14,-10 4,-4 9,-8 12,-13 10,-13 10,-53 -25,-64 -8,-3 -36,-2 -40,6z"/>
   <path class="fil0" d="M254 2184c3,-4 1,-13 8,-25 23,-42 68,-20 73,-24 3,-3 -8,-12 -11,-15 -4,-4 -10,-10 -14,-13 -12,-8 -31,-3 -43,3 -37,23 -22,74 -13,73z"/>
   <path class="fil0" d="M447 2136c9,2 49,-16 72,23 2,3 4,8 5,12 1,4 2,11 3,14 6,1 9,-12 10,-17 12,-50 -41,-75 -65,-60 -5,3 -16,15 -21,20 -3,3 -6,5 -5,8z"/>
   <path class="fil0" d="M361 2322c1,12 17,30 27,35 9,4 28,-20 31,-29 3,-10 1,-16 -6,-22 -2,-2 -5,-6 -8,-8 -4,-3 -7,0 -11,1 -11,3 -11,-9 -22,3 -5,5 -11,11 -10,19z"/>
   <path class="fil0" d="M468 2282c-7,-3 -11,1 -21,-5 -5,-3 -10,-11 -16,-5 -17,17 -25,17 -16,27 10,10 19,17 36,13 7,-2 11,-5 15,-11 3,-5 5,-14 2,-20z"/>
   <path class="fil0" d="M312 2292c4,23 32,27 47,13 3,-3 11,-9 10,-15 -1,-2 -11,-10 -13,-12 -4,-4 -9,-12 -15,-7 -4,3 -7,7 -16,9 -9,2 -15,-3 -13,12z"/>
   <path class="fil0" d="M827 2297c7,-2 17,0 17,9 -1,8 -10,10 -17,8l0 -17zm9 23c11,-2 20,-11 14,-22 -5,-9 -22,-8 -30,-7l0 54 7 0 0 -24c2,0 15,20 18,24l9 0c-1,-6 -17,-21 -18,-25z"/>
   <path class="fil0" d="M774 2212c1,6 1,17 -2,22 -3,6 -11,9 -15,3 -7,-10 -1,-32 17,-25zm-7 -24l0 4 7 1 0 13c-8,0 -14,-1 -21,5 -6,5 -7,12 -7,19 1,17 16,24 28,9l0 7 14 0 0 -4 -7 -1 0 -53c-4,-1 -11,-1 -14,1z"/>
   <path class="fil0" d="M641 2304c3,-5 6,-7 4,-13l-34 0 0 7 25 0 -21 34c-3,6 -6,6 -5,14l36 0 0 -7 -27 0 22 -34z"/>
   <path class="fil0" d="M851 2192l6 1c1,5 0,42 0,52l7 0 0 -20 14 19 9 0c-3,-7 -13,-16 -16,-22l15 -18 -9 0 -14 17 0 -35c-5,-1 -9,0 -14,0l0 4z"/>
   <path class="fil0" d="M899 2305l-7 0c-1,9 3,31 -9,34 -13,3 -8,-16 -9,-34 -4,-1 -10,0 -14,0l0 4 6 1c1,8 -2,25 3,31 3,4 9,4 14,3 5,-1 7,-4 10,-7l0 7 14 -1 0 -4 -6 -1c-2,-5 1,-26 -1,-34z"/>
   <path class="fil0" d="M701 2326c0,9 -9,18 -15,12 -3,-3 -1,-8 2,-10 4,-2 9,-2 13,-2zm-7 -16c6,1 7,5 7,11 -9,1 -26,2 -24,16 1,8 15,13 24,1l0 7 14 -1 0 -4 -7 -1c-1,-8 2,-24 -3,-31 -4,-6 -21,-5 -26,-1l1 5c3,0 8,-3 14,-2z"/>
   <path class="fil0" d="M776 2326c0,9 -9,18 -15,12 -3,-3 -1,-8 2,-10 4,-2 9,-2 13,-2zm-21 -14c5,0 22,-9 21,8 -9,2 -26,2 -24,17 2,12 20,10 24,0l0 7 14 -1 0 -4 -6 -1c-2,-8 2,-24 -3,-30 -5,-7 -19,-5 -26,-2l1 6z"/>
   <path class="fil0" d="M911 2212c17,-4 18,25 5,28 -16,4 -18,-25 -5,-28zm-3 -5c-23,8 -15,49 12,39 21,-8 15,-48 -12,-39z"/>
   <path class="fil0" d="M957 2319c1,-13 19,-13 18,0l-18 0zm0 6c6,-1 21,1 26,-1 2,-8 -3,-18 -12,-20 -25,-4 -25,30 -16,37 7,6 18,4 27,1l-1 -5c-1,0 -26,9 -24,-13z"/>
   <path class="fil0" d="M713 2220c1,-13 20,-12 18,0l-18 0zm24 24l-1 -6c-12,3 -25,5 -24,-12l26 0c4,-23 -24,-28 -32,-9 -3,8 -2,20 4,26 7,7 18,4 27,2z"/>
   <path class="fil0" d="M922 2338c3,-5 7,-10 10,-15 6,-9 9,-10 8,-18l-27 0 0 6 18 0c-1,3 -8,12 -10,16 -6,9 -9,11 -8,18l28 0 0 -7 -19 0z"/>
   <path class="fil0" d="M648 2193l0 13 -8 0 0 5 8 1c2,15 -7,41 18,34 1,-2 0,-4 0,-6 -4,0 -6,1 -9,-1 -2,-4 -2,-22 -1,-27 4,0 8,0 11,-1l0 -5 -11 0 0 -15 -7 2z"/>
   <path class="fil0" d="M718 2310l8 0c1,15 -6,42 19,33l-1 -5c-7,0 -14,6 -11,-28l11 0 0 -6 -11 0 0 -15 -7 2 0 13 -8 0 0 5z"/>
   <path class="fil0" d="M820 2239l-1 6c16,6 33,-8 23,-18 -4,-4 -14,-4 -16,-8 -4,-10 10,-7 15,-7l1 -6c-7,0 -15,-2 -20,3 -5,4 -5,12 1,16 4,3 15,3 14,10 -1,8 -13,5 -17,4z"/>
   <path class="fil0" d="M609 2239l-1 6c6,2 15,1 20,-2 5,-3 7,-11 3,-16 -4,-4 -14,-4 -16,-8 -3,-10 10,-7 15,-7l1 -6c-25,-5 -28,15 -19,20 4,2 15,3 14,9 -1,8 -13,4 -17,4z"/>
   <polygon class="fil0" points="652,2287 651,2291 658,2292 658,2344 666,2345 666,2286 "/>
   <path class="fil0" d="M686 2214l0 -8 -14 0 0 4 6 1 0 34 7 0c1,-8 -1,-15 1,-23 1,-9 4,-10 12,-11l0 -7c-6,0 -12,3 -14,9z"/>
   <polygon class="fil0" points="793,2206 793,2210 800,2211 800,2246 807,2246 807,2206 "/>
   <path class="fil0" d="M884 2296c-8,1 -7,-8 -3,-8 5,-1 8,4 3,8zm-10 -3c1,11 19,9 18,-3 -1,-11 -20,-10 -18,3z"/>
   <path class="fil0" d="M919 2285c-2,1 -2,2 -3,4l11 10 11 -11 -3 -3 -8 6 -8 -6z"/>
   <path class="fil0" d="M676 2189l11 11 11 -11 -3 -3 -8 6c-4,-1 -5,-4 -8,-6l-3 3z"/>
   <polygon class="fil0" points="779,2290 775,2285 764,2295 768,2299 "/>
   <path class="fil0" d="M801 2189c-5,3 0,11 5,8 4,-2 1,-12 -5,-8z"/>
  </g>
 </g>
</svg>
